<?xml version="1.0" encoding="UTF-8" standalone="no"?>
<!-- Created with Inkscape (http://www.inkscape.org/) -->

<svg
   xmlns:dc="http://purl.org/dc/elements/1.1/"
   xmlns:cc="http://creativecommons.org/ns#"
   xmlns:rdf="http://www.w3.org/1999/02/22-rdf-syntax-ns#"
   xmlns:svg="http://www.w3.org/2000/svg"
   xmlns="http://www.w3.org/2000/svg"
   xmlns:sodipodi="http://sodipodi.sourceforge.net/DTD/sodipodi-0.dtd"
   xmlns:inkscape="http://www.inkscape.org/namespaces/inkscape"
   version="1.1"
   id="svg2"
   xml:space="preserve"
   width="1885.1333"
   height="960.38666"
   viewBox="0 0 1885.1333 960.38666"
   sodipodi:docname="navy-seal.svg"
   inkscape:version="0.92.4 (5da689c313, 2019-01-14)"><metadata
     id="metadata8"><rdf:RDF><cc:Work
         rdf:about=""><dc:format>image/svg+xml</dc:format><dc:type
           rdf:resource="http://purl.org/dc/dcmitype/StillImage" /><dc:title></dc:title></cc:Work></rdf:RDF></metadata><defs
     id="defs6" /><sodipodi:namedview
     pagecolor="#ffffff"
     bordercolor="#666666"
     borderopacity="1"
     objecttolerance="10"
     gridtolerance="10"
     guidetolerance="10"
     inkscape:pageopacity="0"
     inkscape:pageshadow="2"
     inkscape:window-width="1920"
     inkscape:window-height="1050"
     id="namedview4"
     showgrid="false"
     inkscape:zoom="0.23128338"
     inkscape:cx="942.56665"
     inkscape:cy="467.22223"
     inkscape:window-x="0"
     inkscape:window-y="0"
     inkscape:window-maximized="1"
     inkscape:current-layer="g10" /><g
     id="g10"
     inkscape:groupmode="layer"
     inkscape:label="ink_ext_XXXXXX"
     transform="matrix(1.3333333,0,0,-1.3333333,0,960.38667)"><g
       id="g12"
       transform="scale(0.1)"><path
         d="m 4004.98,3552.25 -70.58,-33.34 c 0,0 -44.15,61.23 -73.23,89.81 -43.69,42.92 -128.04,58.51 -177.4,48.36 -29.11,-5.99 -63.77,-24.28 -85.1,-44.9 -41.13,-39.78 -72.5,-102.06 -99.06,-86.36 -11.01,6.51 -23.97,25.61 -39.1,38 -91.1,74.58 -262.2,6.86 -314.32,-72.53 -51.82,-78.95 -76.74,-153.88 -72.53,-265.97 3.34,-88.88 20.72,-217.6 20.72,-217.6 H 1592.44 c -22.39,0 -26.55,-0.38 -41.63,-3.8 -110.11,-24.99 -109.99,-199.53 -90.18,-293.24 16.52,-78.13 61.8,-105.11 141.34,-110.53 205.1,-13.99 1791.8,0 1791.8,0 0,0 40.22,-81 64.39,-96.71 8.89,-5.79 31.52,0.55 43.79,10.36 50.09,40.02 39.92,120.13 85.25,86.35 13.55,-10.1 27.32,-31.11 46.01,-44.9 43.13,-31.82 63,-25.28 85.42,23 1.49,3.22 2.9,6.39 3.49,9.83 0.8,4.64 2.96,5.39 21.59,7.46 l 41.47,4.61 c 0,0 -1.89,-50.82 0,-88.42 8.09,-160.27 100.3,-238.39 257.95,-284.53 21.51,-6.29 26.39,-7.07 48.76,-7.81 L 4278,2213.3 c 0,0 6.02,-114.95 14.93,-193.42 8.13,-71.69 35.18,-213.15 69.07,-269.42 14.11,-23.42 77.16,-92.24 73.17,-127.11 -0.57,-4.97 -1.81,-7.71 -12.44,-27.41 l -245.8,-455.68 c -10.63,-19.69 -14.22,-22.5 -35.93,-28.01 -218.46,-55.5 -330.51,-187.672 -348.91,-424.246 -6.9,-88.758 31.3,-229.387 86.35,-298.426 49.98,-62.683 158.91,-144.859 161.16,-167.363 1.3,-13.035 -7.27,-24.086 -7.67,-43.52 -1.6,-79.3395 77.8,-131.1677 144.8,-113.7927 35.24,9.1368 53.75,35.2577 81.14,40.4417 26.61,5.039 131.72,-52.4807 211.21,-78.4377 109.37,-35.71489 264.5,-33.22661 359.22,3.457 114.01,44.1562 190.71,117.0547 245.23,241.7777 15.1,34.547 29.56,82.218 17.27,115.226 -7.63,20.492 -25.32,38.809 -25.93,55.371 -0.33,9.09 4.48,17.653 7.46,29.153 4.51,17.371 4.86,41.453 1.29,62.371 -4.64,27.168 -15.89,49 -12.58,63.933 2.94,13.27 17.37,21.098 28.95,35.731 13.65,17.23 42.77,137.242 59.53,204.676 11.39,45.804 31.97,91.328 72.53,162.338 21.41,37.48 49.04,84.67 49.04,84.67 0,0 110.43,-25.26 178.93,-46.68 86.08,-26.91 223.55,-98.657 290.14,-134.703 88.9,-48.125 559.85,-362.93 838.08,-546.997 18.67,-12.351 23.15,-13.121 44.87,-7.691 l 49.63,12.406 1020.06,692.015 c 0,0 44.64,-87.48 78.32,-135.917 61.49,-88.445 177.75,-128.227 264.85,-107.074 159.57,38.754 369.19,359.301 450.13,518.101 95.26,186.92 233.64,501.29 233.64,501.29 0,0 43.8,-35.43 80.67,-62.63 296.32,-218.55 871.46,-306.06 1183.07,-321.22 580.02,-28.22 1456.92,67.47 1994.62,210.69 37.5,9.98 119.8,31.82 110.5,68.39 -3.4,13.4 -14.7,24.96 -27.6,35.23 -13.8,11.05 -401.2,77.78 -621.7,117.44 -155.5,27.96 -471.8,141.45 -601,221.06 -92,56.67 -206.4,141.4 -206.4,141.4 0,0 244.6,107.72 455.1,179.82 177.1,60.7 835.3,203.57 939.5,245.23 43.4,17.37 123.6,73.25 79.4,127.8 -4.9,6.03 -10.9,10.01 -17.3,13.82 -22.1,13.28 -361.9,80.82 -573.3,124.34 -107.9,22.22 -536.3,160.98 -701.2,248.69 -64.7,34.4 -147.9,84.52 -147.9,84.52 0,0 373.2,174 648.7,278.15 108.7,41.09 462.5,140.15 694.6,207.25 21.5,6.21 24.7,7.78 31.9,15.68 31.2,34.3 5.2,68.49 -11.5,84.48 -11.9,11.4 -334.9,89.38 -400.6,96.71 -355.5,39.68 -551.1,68.23 -965.4,69.08 -232.3,0.48 -544.1,-6.9 -544.1,-6.9 0,0 1.1,33.7 0,62.31 -6,159.32 -184.14,439.06 -279.73,545.59 -53.4,59.52 -127.49,135.51 -127.49,135.51 0,0 91.44,71.85 141.31,127 65.67,72.63 65.12,119.1 90.49,131.25 29.21,13.99 158.72,-13.5 256.12,0 106.8,14.79 237,94.38 278.6,210.7 13.4,37.54 27.6,93.25 27.6,93.25 l 237.7,-16.68 c 22.3,-1.57 27.3,-1.52 49.6,0.44 206.7,18.13 304.7,31.4 441.5,147.49 21.4,18.14 38.9,35.41 55.3,69.09 24.7,51.04 48.2,141.38 48.2,141.38 0,0 259.4,-26.15 423.7,-32.79 285.3,-11.55 538.8,42.73 705.9,243.71 25.6,30.87 56.7,89.72 65.6,124.35 6.4,24.82 11.8,54.89 11.8,54.89 0,0 254.5,12.67 409.6,28.01 480.5,47.49 993.6,257.04 1153.6,725.34 40.8,119.36 46.9,158.26 -51.8,183.06 -33.3,8.38 -62.6,13.62 -93.9,17.27 -45,5.26 -596,-32.17 -762.7,-51.81 -86.5,-10.18 -1342.1,-37.69 -1419.2,-31.09 -419,35.93 -2226.18,279.77 -2373.28,283.23 -282.24,6.66 -715.09,-48.28 -1036.21,-124.34 -169.07,-40.05 -413.2,-101.32 -476.65,-107.07 -51.63,-4.69 -411.59,25.66 -639.41,44.9 -98.18,8.29 -339.61,8.29 -411.02,0 -124.47,-14.45 -225.98,-45.95 -339.98,-50.76 -59.83,-2.52 -578.75,114.57 -892.69,175.1 -78.56,15.15 -522.03,53.69 -635.96,55.27 C 3790.37,7210.43 3125.27,6909.74 1750.77,6517 1602.01,6474.5 1141.14,6369.16 1025.43,6351.21 696.98,6300.27 136.254,6207 99.75,6192.32 7.71484,6155.32 -24.5547,6093.57 23.7617,5998.9 96.4727,5856.42 235.551,5764.61 400.25,5732.94 c 93.867,-18.05 253.605,-28.01 253.605,-28.01 0,0 25.602,-51.35 46.895,-85.97 42.547,-69.19 153.895,-142.4 238.324,-176.16 64.746,-25.89 213.916,-58.57 285.166,-58.72 69.7,-0.14 152.01,13.99 180.02,0 24.22,-12.09 34.22,-39.74 59.83,-65.62 108.4,-109.59 440.77,-154.99 607.9,-134.71 81.15,9.85 194.08,27.52 209.59,20.73 17.5,-7.67 28.18,-23.31 46.01,-38 116.04,-95.58 298.38,-78.35 449.02,-48.35 50.98,10.14 96.12,19.13 145.07,37.99 188.96,72.81 235.66,142.01 325.83,108.99 121.08,-44.33 129.95,-54.14 275.44,-46.82 55.87,2.81 109.99,11.41 172.43,31.09 138.05,43.51 366.12,148.52 366.12,148.52 0,0 -69.28,-189.06 -86.35,-290.14 -6.28,-37.24 -12.26,-155.22 -3.45,-193.56 13,-56.54 31.74,-76.31 24.33,-104.73 -8.32,-31.91 -47.17,-81.56 -62.32,-123.1 -20.92,-57.35 -11.39,-157.71 13.81,-214.15 11.45,-25.62 26.65,-49.24 41.45,-75.99 5.51,-9.94 10.95,-20.32 18.91,-28.62 10.74,-11.19 10.77,-14.64 0.35,-34.47 -109.9,-209.35 -148.25,-485.47 -46.89,-696.79 17.62,-36.75 43.64,-84.1 43.64,-84.1 z M 2859.51,6786.41 v 7.38 c 0,3.31 2.42,4.26 24.16,9.58 992.58,242.38 1571.54,376.3 2424.04,335.35 85.49,-4.1 515.07,-66.83 591.33,-86.35 177.61,-45.44 406.28,-116.74 406.28,-116.74 0,0 -131.21,-40.68 -205.94,-59.41 -160.42,-40.2 -246.8,17.6 -435.21,79.44 -52.73,17.3 -447.12,83.86 -552.65,93.26 -355.56,31.67 -489.64,31.37 -856.59,-24.18 -499.39,-75.6 -1395.42,-238.33 -1395.42,-238.33 z M 6106.28,5128.49 c 0,0 -48.84,-2.46 -75.55,-3.88 -22.33,-1.18 -29.21,-1.62 -34.98,-6.48 -17.39,-14.66 -26.89,-70.67 -52.91,-86.36 -23.21,-13.98 -89.47,9.55 -133.74,0 -20.09,-4.33 -37.38,-16.51 -61.47,-22.98 -37.81,-10.16 -99.26,-5.73 -147.83,-7.28 -60.05,-1.91 -70.34,-21.58 -80.7,-73.22 -7.05,-35.11 6.8,-249.79 13.31,-374.58 1.16,-22.35 -0.68,-26.36 -18.37,-40.06 l -544.13,-421.37 -311.47,-497.03 c -11.89,-18.96 -14.56,-22.71 -26.69,-37.49 -22.73,-27.65 -80.62,-60.21 -109.76,-45.75 -5.01,2.49 -9.31,6.82 -12.94,11.28 -4.89,6.01 -4.22,8.85 6.65,28.42 l 307.43,553.37 c 10.87,19.57 12.96,23.98 20.96,44.1 5.93,14.93 9.8,29.52 11.84,46.59 17.23,144.13 -45.71,276.27 -10.36,331.72 12.17,19.1 37.95,40.91 65.62,58.72 103.22,66.41 148.59,72.06 183.06,169.24 24.96,70.34 32.32,159.29 24.18,237.5 -15.78,151.73 -31.8,162.19 -10.36,259.88 8.7,39.65 21.1,79.87 41.45,110.53 35.47,53.44 114.74,102.25 172.7,165.79 63.76,69.9 177.75,282.16 221.06,400.67 14.87,40.69 31.08,89.8 31.08,89.8 0,0 -135.34,-197.08 -252.14,-324.67 -97.38,-106.38 -410.9,-350.68 -445.57,-400.67 -142.84,-205.95 -110.5,-269.88 -283.23,-376.49 -85.71,-52.9 -146.19,-71.61 -214.15,-34.54 -13.52,7.38 -23.84,16.08 -31.08,31.09 -17.67,36.63 -14.75,71.18 -33.85,62.17 -16.96,-8 -43.96,-51.32 -73.23,-79.44 -45.98,-44.19 -155.73,-92.03 -193.42,-62.18 -52.55,41.63 -21.86,212.48 -3.46,279.78 49.65,181.56 167.72,376.22 269.42,511.19 43.92,58.3 327.81,357.27 390.3,411.03 70.94,61.04 523.08,385.07 621.73,445.57 302.95,185.79 632.43,343.58 994.75,407.58 84.81,14.97 164.03,22.3 277.7,41.44 65.21,10.98 146.81,15.04 150.6,6.91 1.49,-3.2 1.05,-7.37 0.63,-11.06 -0.57,-4.97 -3.02,-6.22 -24.5,-12.51 -337.56,-98.89 -515.75,-145.74 -763.65,-297.65 -173.21,-106.15 -446.27,-296.3 -446.27,-296.3 0,0 500.49,194.72 784.77,303.2 63.42,24.21 517.22,136.29 573.36,141.62 116.94,11.1 268.16,20.72 268.16,20.72 0,0 -75.51,-41.55 -98.91,-62.17 -9.85,-8.68 -9.54,-16.96 -3.46,-20.72 9.86,-6.1 682.26,165.32 1126.02,279.77 79.88,20.6 756.51,124.09 880.77,134.71 626.47,53.53 731.35,-12.58 1481.75,-138.16 139,-23.26 1044.3,-120.46 1351.2,-145.07 73.2,-5.87 1947.3,56.3 1978.5,65.62 124.9,37.38 219.7,73.77 207.2,-8.98 -41.3,-274.94 -327.9,-522.03 -563,-623.1 -656.3,-282.17 -2453.7,-86.92 -3167.3,72.53 -161.7,36.13 -368.49,87.43 -368.49,87.43 0,0 86.89,44.73 147.39,78.37 42.5,23.59 71.9,41.74 93.3,58.72 25.5,20.28 39.6,38.91 63.3,48.35 28.8,11.51 280.8,-38.79 391.9,-34.54 55.5,2.12 100.2,18.5 152.7,20.73 49.9,2.11 107.9,-8.76 165.8,-20.73 238.9,-49.38 781.4,-135.76 1088,-72.53 42.6,8.79 76.7,21.77 117.4,27.63 61.4,8.82 294,-26.58 446.2,-37.99 285.2,-21.39 738.1,49.41 980.4,179.6 72.6,39.04 146.3,92.96 217.8,142.05 18.4,12.67 20.5,14.49 21,18.22 2.7,24.13 -33.4,25.56 -46.1,26.25 -23.2,1.27 -217.5,-69.34 -334.4,-107.07 -184.2,-59.49 -686.1,-101.45 -874.5,-79.45 -108.2,12.64 -253.9,33.67 -276.9,27.64 -46.5,-12.2 -80.1,-47.25 -133.5,-72.54 -183.6,-87.02 -551.1,-76.53 -721.8,-51.81 -342.5,49.58 -1087,216.77 -1223.5,227.97 -322.16,26.44 -710.53,-10.12 -1025.11,-86.35 -186.59,-45.22 -879.03,-282.5 -1312.52,-421.39 -74.53,-23.88 -172.21,-45.79 -207.24,-44.9 -23.72,0.6 -45.22,5.04 -55.27,0 -8.04,-4.04 -8.29,-14.62 0,-23.08 25.35,-25.87 138.79,-51.97 187.9,-52.91 56.73,-1.09 102.81,15.51 148.38,6.9 47.36,-8.93 115.45,-62.93 185.28,-96.71 65.37,-31.62 164.78,-60.44 231.14,-62.17 66.14,-1.72 166.07,6.91 166.07,6.91 0,0 3.15,-30.24 4.61,-50.08 1.85,-25.22 -1.49,-37.77 -11.52,-43.18 -27.99,-15.11 -111.22,-35.91 -158.88,-62.17 -30.13,-16.6 -46.04,-35.38 -71.29,-44.9 -58.01,-21.87 -263.22,19.42 -350.1,44.9 -85.48,25.06 -241.81,90.72 -310.86,158.88 -15.96,15.75 -28.95,32.66 -41.45,41.45 -12.59,8.86 -24.69,9.47 -27.63,3.45 -6.58,-13.43 32.44,-59.89 51.81,-110.52 24.2,-63.27 25.36,-291.47 17.27,-322.47 -12.98,-49.7 -100.58,-176.92 -162.34,-243.99 -55.27,-60.03 -147.21,-139.49 -210.7,-172.7 -60.42,-31.61 -152.86,-68.7 -152.86,-68.7 0,0 75.78,116.26 107.96,186.13 84.29,183.02 36.68,427.61 -82.9,587.19 -189.85,253.36 -563.54,303.79 -818.6,127.79 -216.13,-149.14 -300.83,-410.24 -238.32,-652.81 10.31,-40 23.99,-81.99 44.9,-113.98 22.93,-35.07 54.54,-58.12 76.75,-115.71 6.99,-18.15 13.06,-39.72 13.06,-39.72 l -131.26,20.73 z m -3565.44,1460.87 82.82,-74.2 c 0,0 -87.8,-53.22 -157.91,-91.42 C 2231.28,6296 1736.57,6171.8 1495.17,6130.15 1212.7,6081.41 773.285,6026.53 773.285,6026.53 v -13.82 c 0,0 189.738,-7.14 331.585,-6.91 391.96,0.67 1055.98,128.53 1423.05,262.51 138.96,50.72 293.18,116.92 400.67,155.43 35.81,12.83 132.37,24.9 138.16,17.27 5.84,-7.7 -47.21,-139.67 -62.63,-155.81 C 2835.76,6109 2224.74,5926.28 1937.29,5867.64 1629.48,5804.86 722.449,5684.05 365.711,5802.02 c -113.102,37.4 -287.0977,139.16 -317.7696,263.61 -2.9961,12.16 -3.4531,23.59 -2.0703,35.39 1.8633,15.9 4.5078,18.15 26.4531,22.54 570.2578,114.15 1649.3258,327.8 1709.5358,348.54 166.69,57.41 777.89,236.23 790.96,231.42 24.8,-9.12 39.55,-27.29 69.09,-34.54 18.74,-4.6 355.95,71.1 569.91,117.43 172.57,37.38 750,96.09 857.97,103.63 292.5,20.4 1001.19,15.14 1366.41,-141.62 54.97,-23.6 124.69,-58.19 124.69,-58.19 0,0 -146.56,-96.69 -224.85,-131.78 -159.63,-71.54 -425.35,37.62 -645.9,79.44 -211.62,40.13 -613.5,40.09 -815.15,13.82 -344.6,-44.9 -971.14,-167.75 -1026.54,-162.34 -61.82,6.03 -149.52,19.96 -210,72.53 -33.07,28.75 -80.13,79.44 -80.13,79.44 0,0 -252.6,-71 -269.1,-91.37 -5.47,-6.76 9.64,-29.23 24.3,-36.83 4.11,-2.13 7.6,-3.81 15.45,-3.05 42.41,4.11 211.87,79.27 211.87,79.27 z m 270.31,190.14 6.91,13.82 h 20.73 v -13.82 z m 7363.95,-135.8 c 1.3,-6.23 2.5,-16.27 0,-25.43 -3.2,-11.56 -84.3,-60.07 -117.4,-70.18 -45,-13.75 -202.52,-40.34 -252.17,3.45 -6.58,5.8 -9.96,13.22 -10.36,22.1 -0.8,17.51 9.93,40.74 6.91,60.8 -5.73,38.03 -47,59.4 -27.63,82.89 7.35,8.94 29.98,7.3 55.26,4.61 15.72,-1.67 278.49,-21.89 338.49,-70.23 3.2,-2.57 6.4,-5.42 6.9,-8.01 z M 8728.58,6472.29 c 26.46,14.95 680.73,173.67 725.33,175.96 108.7,5.59 281.82,-0.3 237.64,-78.34 -49.17,-86.82 -213.17,-167.41 -317.77,-191.07 -130.39,-29.49 -192.53,-6.95 -366.13,17.27 -64.4,8.99 -289.33,70.39 -279.07,76.18 z m -5482.22,-0.88 v -79.77 c 0,0 56.26,31.25 110.53,52.82 52.07,20.71 347.97,34.25 490.47,62.18 31.03,6.08 125.92,34.07 162.34,58.72 25.38,17.18 33.41,38.21 65.62,44.9 47.76,9.91 148.66,-11.74 148.66,-11.74 0,0 -68.6,-62.2 -121.03,-105.7 -209.25,-173.64 -647.72,-379.89 -904.95,-317.77 -78.33,18.92 -121.39,58.62 -138.16,123.1 -18.58,71.42 11.09,84.01 96.71,160.13 43.94,39.07 56.38,52.13 82.25,41.19 6.8,-2.87 7.56,-5.68 7.56,-28.06 z m 6638.61,116.24 v -15.38 c 0,0 27.27,-2.11 49.74,0 25.33,2.37 66.59,19.24 74.59,30.39 2.8,3.89 2.9,8.57 0,11.05 -6.2,5.39 -72.51,-4.28 -100.28,-11.83 -21.64,-5.89 -24.05,-7.31 -24.05,-14.23 z M 3633.21,6167.04 c 0,0 265.92,12.85 352.31,35.64 147.26,38.87 533.79,327.07 611.84,382.77 18.22,13 22.68,13.95 44.64,9.51 57.02,-11.53 203.64,-45.26 186.3,-87.63 -5.92,-14.47 -175.55,-136.41 -255.6,-183.76 -249.45,-147.52 -569.84,-354.01 -863.5,-252.14 -31.12,10.8 -73.48,35.93 -75.99,72.53 -0.67,9.7 0,23.08 0,23.08 z m 8231.29,-245.4 c 77.9,-3.97 216.8,8.43 279.4,25.45 71.9,19.52 137.1,39.35 138.2,31.09 1.9,-15.43 -20.8,-55.27 -20.8,-55.27 l 123.3,8.8 c 0,0 -68.2,-71.57 -123.3,-115.87 -78.3,-63.03 -212.2,-99.05 -312.2,-113.99 -65.2,-9.74 -129.7,-9.73 -199,-6.9 -96,3.91 -732.7,85.29 -918.7,117.43 -236.5,40.84 -443.1,79.84 -704.6,127.8 -122.1,22.38 -999.46,244.68 -1022.43,259.05 -35.92,22.47 -34.65,42.63 13.81,69.08 20.85,11.38 41.11,22.58 64.39,27.63 44.33,9.63 99.57,-3.05 152.25,0 106.74,6.19 257.47,69.1 353.64,125.56 19.32,11.34 23.88,12.02 45.65,6.8 l 2081.39,-499.59 c 21.8,-5.22 26.7,-5.93 49,-7.07 z m -6904.95,418.1 c 2.61,-3.53 1.88,-10.92 0,-17.54 -5.5,-19.43 -20.86,-32.28 -38.16,-47.02 -243.96,-207.85 -332.55,-321.39 -601.8,-352.27 -61.86,-7.09 -190.7,-7.86 -223.55,66.73 -7.32,16.64 6.67,33 27.64,47.25 34.75,23.63 260.3,63.38 379.94,100.17 36.76,11.3 154.52,78.04 207.24,117.44 57.2,42.75 173.13,146.66 201.71,131.25 13.38,-7.22 37.21,-32.79 46.98,-46.01 z M 8986.93,6222.3 c 9.03,-26.6 -3.23,-41.16 -13.82,-47.25 -198.88,-114.47 -223.47,-135.2 -389.61,-113.98 -203.36,25.98 -299.89,56.73 -439.35,127.8 -28.56,14.55 -82.57,63.16 -78.06,70.25 6.47,10.18 329.67,91.52 393.34,99 28.96,3.4 54.75,5.85 78.62,0 24.22,-5.95 46.46,-20.46 75.84,-31.09 131.11,-47.41 290.61,-13.27 352.31,-75.99 8.6,-8.74 17.88,-20.35 20.73,-28.74 z m -1971.24,-1111.61 33.65,84.92 c -20.83,20.83 -49.32,2.26 -60.21,1.96 -47.55,-1.32 -195.21,-73.91 -265.55,-89.81 -78.89,-17.83 -241.97,43.87 -306.44,86.35 -27.25,17.96 -106.91,106.72 -120.89,134.71 -32.75,65.57 -44.5,144.07 -79.44,234.87 -16.47,42.78 -40.58,96.57 -58.03,82.9 -19.46,-15.25 -30.72,-59.33 -45.59,-41.45 -15.78,18.97 39.62,180.88 44.9,193.43 112.5,267.26 422.13,413 708.07,314.31 281.64,-97.21 431.12,-354.99 376.49,-666.63 -16.02,-91.38 -82.19,-215.19 -155.43,-283.22 -39.76,-36.94 -71.53,-52.34 -71.53,-52.34 z m 4205.51,495.15 c 0,0 -43.1,-81.71 -79,-121.59 -78.8,-87.61 -364.3,-117.81 -458.7,-113.98 -168.3,6.83 -392.8,42.2 -563.7,82.89 -211.86,50.47 -414.51,122.98 -642.4,169.25 -67.06,13.62 -321.35,98.38 -331.59,110.53 -21.3,25.29 -29.4,57.67 -55.26,89.8 -27.54,34.23 -72.44,68.7 -110.53,86.35 -78.2,36.26 -235.39,77.29 -235.39,77.29 0,0 153.89,93.56 228.48,133.41 33.86,18.09 66.77,27.3 86.35,24.17 35.96,-5.73 193.34,-78.85 321.23,-131.25 242.05,-99.17 821.71,-234.46 1063.81,-279.77 314.5,-58.86 776.7,-127.1 776.7,-127.1 z m -7859.68,496.68 c 0,0 -367.92,-193.89 -636.72,-317.77 -87.15,-40.17 -560.41,-210.44 -652.81,-234.87 -264.99,-70.08 -961.6,-224.97 -1215.81,-3.46 -27.84,24.26 -53.051,56.51 -75.989,79.44 -12.679,12.68 -25.054,25.62 -27.632,46.01 -1.957,15.48 0,36.89 0,36.89 0,0 179.847,-11.61 319.491,-13.81 451.1,-7.13 1013.61,112.92 1421.33,221.05 144.86,38.42 369.97,111.67 435.21,141.62 79.77,36.61 180.69,80.07 201.71,79.44 36.6,-1.1 58.82,-29.13 138.16,-34.54 39.41,-2.69 93.06,0 93.06,0 z m 400.14,-97.99 c 0,0 -117.01,-92.18 -211.35,-161.06 -397.59,-290.31 -1268.35,-686.28 -1754.64,-607.91 -57.39,9.25 -129.3,31.72 -165.79,51.81 -5.37,2.96 -113.95,63.28 -117.44,87.04 -1.08,7.43 0,16.58 0,16.58 0,0 130.73,-3.17 228.38,0 441.93,14.36 1141.61,299.6 1508.99,497.38 150.44,80.99 358.63,199.63 358.63,199.63 0,0 18.61,-25.89 45.49,-44.2 43.18,-29.41 107.73,-39.27 107.73,-39.27 z m 317.57,-102.27 c 0,0 -458.25,-287.6 -736.16,-456.01 -286.91,-173.85 -488.35,-293.92 -755.46,-269.41 -22.64,2.08 -40.53,4.62 -73.5,17.27 -38.82,14.9 -98.55,43.8 -98.55,43.8 0,0 80.78,8.78 139.99,18.38 364.11,58.98 1067.59,519.62 1347.39,714.57 18.36,12.8 22.88,14.01 45.2,12.07 38.41,-3.33 106.93,-6.73 114.41,-16.16 16.38,-20.66 16.68,-64.51 16.68,-64.51 z m 5193.69,-1071 c 0,0 -29.34,163.01 -54.57,276.5 -35.96,161.73 -109.38,357.93 -207.24,490.47 -42.08,56.99 -74.31,92.72 -86.35,82.9 -11.72,-9.56 76.8,-235.07 107.07,-352.31 29.51,-114.28 11.26,-220.22 -82.9,-255.6 -130.33,-48.97 -141.74,46.3 -328.13,141.62 -55.89,28.58 -110.19,18.5 -158.88,-20.73 -51.95,-41.86 -140.93,-196.02 -207.24,-255.59 -45.29,-40.69 -170.41,-76.02 -237.22,-51.81 -40.17,14.54 -67.53,58.32 -66.73,103.61 1.71,97.44 64.19,195.86 2.76,214.16 -17.71,5.27 -58.88,-3.31 -116.75,-20.73 -61.86,-18.62 -149.6,-45.33 -149.6,-45.33 0,0 174.4,236.51 294.67,370.01 235.93,261.87 632.07,512.3 936.04,369.58 177.1,-83.16 302.93,-362.41 345.4,-573.37 21.91,-108.82 30.06,-246.87 55.27,-337.8 8.28,-29.91 8.28,-76.87 0,-89.39 -14.6,-22.05 -45.6,-46.19 -45.6,-46.19 z m 2885.68,1043.49 -260.2,-72.93 c -21.5,-6.04 -24.2,-6.94 -26.5,-8.98 -1.7,-1.51 -3.5,-2.41 -4.3,-5.33 -1.5,-5.14 0,-16.58 0,-16.58 0,0 56.1,-1.49 99.5,0 59.5,2.05 209.9,42.66 259.7,99.48 3.3,3.79 3.3,9.72 0,11.05 -6,2.4 -19.7,2.81 -29.5,1.68 -13.2,-1.51 -17.1,-2.35 -38.7,-8.39 z M 4315.21,5685.14 c -37.63,-87.91 -173.75,-201.23 -219.17,-228.52 -199.01,-119.63 -400.78,-153.62 -625.17,-162.34 -81.77,-3.18 -150.48,-0.96 -157.29,7.67 -5.17,6.56 67.41,79.8 91.66,92.5 132.41,69.3 463.8,179.12 511.2,214.14 75.96,56.14 152.88,133.09 178.22,134.71 27.19,1.74 53.16,-18.64 98.23,-13.82 39,4.18 86.72,31.11 98.93,20.73 12.69,-10.8 28.18,-53.89 23.39,-65.07 z m 2595.86,-618.83 h 392.45 l 17.79,-567.02 c 0.71,-22.37 0.03,-26.31 -6.71,-39.41 -5.01,-9.73 -11.66,-18.2 -20.14,-25.65 -83.9,-73.69 -1112.73,-38.62 -1188.18,-20.73 -28.69,6.81 -70.28,16.89 -85.45,61.86 -3.92,11.6 -4.35,15.38 -4.35,37.76 v 457.04 c 0,22.38 0.43,26.15 4.35,37.76 10.72,31.76 35.95,47.2 53.12,51.49 55.98,13.98 329.37,0 329.37,0 0,0 -50.13,37.11 -93.26,72.95 -81.08,67.36 -162.91,214.38 -174.43,282.96 -5.17,30.73 -6.07,61.43 -1.72,91.04 2.02,13.71 5.24,30.07 8.74,46.16 27.04,37.25 15.82,43.66 34.1,13.89 16.39,-54.91 42.53,-136.95 67.69,-192.69 59.99,-132.88 156.46,-217.58 283.23,-262.51 103.67,-36.74 183,-48.01 283.23,-13.81 62.9,21.46 172.7,69.81 172.7,69.81 0,0 -0.81,-21.47 -2.38,-33.25 -1.79,-13.51 -4.56,-14.25 -17.34,-24.16 -17.27,-13.37 -52.81,-43.49 -52.81,-43.49 z m 3542.23,249.17 c 0,0 -33.3,-76.85 -60.6,-117.91 -51.5,-77.59 -200.3,-120.45 -288.1,-124.35 -52.7,-2.34 -154.06,9.17 -212.72,24.18 -159.59,40.83 -392.62,135.01 -416.83,127.8 -8.54,-2.54 -4.82,-11.99 -41.34,-42.82 -25.85,-21.81 -71.83,-54.32 -71.83,-54.32 0,0 -30.7,122.92 -71,242.21 -38.56,114.13 -85.91,224.94 -85.91,224.94 0,0 281.5,-116.39 486.58,-180.04 133.99,-41.59 457.15,-111.1 625.15,-107.08 60,1.44 136.6,7.39 136.6,7.39 z m 390.3,106.64 c 92.6,13.13 199.2,34.56 264.1,82.85 8,5.98 25.3,24.12 13.8,31.09 -2.6,1.6 -7.4,1.05 -11.1,0.63 -4.9,-0.56 -7.8,-1.44 -29,-8.74 l -284.6,-98.27 v -11.05 h 14.8 c 6.6,0 9.8,0.34 32,3.49 z M 10106,5121.58 c 0,0 14.9,-0.44 27.7,0 47.1,1.6 122.7,36.76 165.8,55.26 12.3,5.29 22.6,9.93 27.6,17.96 3.9,6.22 4.5,14.45 0,16.58 -2,0.92 -4.9,0.71 -7.4,0.42 -3.3,-0.37 -6,-1.29 -26.9,-9.15 L 10106,5132.63 Z M 5056.26,4962.97 c 6.1,-94.88 -9.56,-198.32 -82.9,-252.42 -70.65,-52.11 -158.7,-23.87 -172.7,69.77 -10.17,68.09 51.06,220.6 75.99,258.36 36.78,55.7 105.76,109.41 148.53,48.36 17.9,-25.56 28.78,-88.29 31.08,-124.07 z m 4320.6,-63.04 c -6.22,5.69 27.22,55.58 52.18,83.49 15.42,17.24 23.05,30.27 34.54,41.45 33.82,32.88 80.43,48.87 111.91,41.44 53.77,-12.67 146.94,-67.76 191.91,-69.08 61.4,-1.8 97.5,28.19 83.03,-15.19 -28.36,-85.03 -157.65,-187.73 -184.28,-182.79 -26.04,4.83 -58.24,53.53 -92.04,84 -16.33,14.73 -41.37,25.02 -62.03,24.18 -42.74,-1.74 -120.79,-20.72 -135.22,-7.5 z M 5767.79,4707.1 v 157.22 c 0,22.39 0.37,27.34 3.69,49.55 4.92,32.83 14.05,63.7 45.75,73.88 7.23,2.32 10.52,2.57 32.9,2.57 h 104.17 v -400.66 c 0,0 -36.05,-2.09 -53.05,0 -29.16,3.59 -38.88,49.76 -54.02,82.9 -7.32,16.02 -19.61,26.25 -37.51,29.93 -16.74,3.44 -41.93,4.61 -41.93,4.61 z m 1595.75,-100.78 v 384 h 104.17 c 22.39,0 25.68,-0.25 32.91,-2.57 43.99,-14.12 44.74,-69.87 49.44,-103.12 8.29,-58.67 8.29,-184.34 0,-212.21 -7.92,-26.62 -19.9,-55.56 -19.9,-55.56 0,0 -46.73,10.91 -90.63,7.34 -39.12,-3.18 -75.99,-17.88 -75.99,-17.88 z m -1816.81,121.5 v 122.69 c 0,22.38 0.38,27.13 3.75,47.56 5.45,33.05 12.35,48.7 31.64,63.42 9.56,7.3 13.11,8.11 35.49,8.11 h 115.64 v -317.77 h -20 c -8.98,0 -11.5,1.98 -25.18,19.79 -25.58,33.31 -53.54,54.34 -74.47,56.2 -23.37,2.07 -66.87,0 -66.87,0 z m 2189,233.67 c 48.7,-37.17 49.96,-160.89 35.39,-219.99 -7.61,-30.85 -20.94,-66.84 -20.94,-66.84 l -151.77,-23.52 v 318.46 h 101.83 c 22.38,0 25.93,-0.81 35.49,-8.11 z m 960.16,-443.86 -140.21,-75.11 c -19.73,-10.57 -22.47,-11.81 -27.44,-12.38 -15.83,-1.8 -23.25,4.45 -11.06,30.62 17.46,37.46 71.85,72 93.26,101.27 21.63,29.56 11.31,114.59 -20.72,158.88 -10.33,14.29 -23.36,20.71 -31.09,13.82 -8.89,-7.93 7.21,-33.66 6.91,-57.61 -0.15,-11.41 -74.26,-79.67 -87.45,-80.55 -21.61,-1.45 -38.48,8.89 -66.25,13.81 -62.77,11.14 -133.77,1.46 -153.71,-41.44 -15.37,-33.1 -17.24,-108 -35.23,-103.62 -27.07,6.59 -49.52,138.42 -51.12,156.39 -15.92,178.6 101.2,354.39 287.93,306.44 103.84,-26.66 191.72,-139.88 216.36,-248.69 14.87,-65.66 19.82,-161.83 19.82,-161.83 z M 9531.13,4696 8569.68,4216.63 c 0,0 -34.06,36.95 -49.04,62.17 -8.23,13.84 -15.55,59.11 -5.48,87.95 4.93,14.1 7.69,16.81 27.57,27.09 l 871.13,450.36 c 19.88,10.28 23.34,11.91 34.58,16.34 47.46,18.71 110.22,-6.71 132.58,-25.65 41.98,-35.54 80.61,-110.29 58.8,-124.14 -11.37,-7.21 -40.92,-5 -61.51,-4.39 -22.43,0.66 -27.15,-0.37 -47.18,-10.36 z m -4689.02,142.35 v -25.8 c 0,-11.6 0.23,-13.94 2.3,-23.4 6.66,-30.58 38.75,-54.57 66.78,-47.51 14.51,3.65 52.04,24.63 55.27,39.1 2.55,11.45 0,29.98 0,29.98 0,0 -33.5,-10.66 -53.89,-6.91 -25.73,4.73 -30.55,32.44 -60.1,34.54 -4.84,0.35 -10.36,0 -10.36,0 z m 4061.92,-169.94 c 7.05,-16.92 -16.57,-31.29 -34.54,-40.75 -70.1,-36.95 -138.49,-90.85 -151.97,-85.52 -9.86,3.89 9.62,39.42 0,95.88 -29.37,172.29 -110.11,219.89 44.9,151.97 78.64,-34.45 111.47,-49.24 141.61,-121.58 z M 4379.27,4467.62 v -9.21 l 273.88,44.38 c 22.1,3.58 25.69,3.76 35.99,1.78 55.24,-10.57 125.93,-113.21 132.25,-145.09 24.59,-123.96 -124.31,-169.32 -214.15,-236.11 -153.83,-114.36 -217.26,-311.57 -176.15,-487.02 8.45,-36.11 19.7,-71.58 41.44,-103.62 28.45,-41.91 194.34,-173.11 100.17,-238.32 -44.54,-30.85 -182.73,-5.07 -200.33,20.72 -12.01,17.59 -9.73,46.26 -17.27,72.53 -24.27,84.58 -110.86,139.45 -189.97,155.43 -53.4,10.79 -146.53,18.32 -146.53,18.32 0,0 -29.04,67.36 -46.9,119.84 -40.85,120.05 -35.17,388.85 17.27,521.56 17.27,43.7 55.22,120.73 89.8,158.89 15.49,17.08 36.99,37.8 36.99,37.8 l -54.26,58.91 c 0,0 1.16,-43.78 -6.9,-55.27 -7.43,-10.57 -31.86,8.65 -41.45,20.73 -45.72,57.6 -39.42,172.24 -17.27,234.87 11.42,32.31 30.51,76.28 30.51,76.28 l 102.58,-5.8 c 22.34,-1.26 27.27,-0.9 49.25,3.59 21.52,4.4 44.51,9.68 62.89,19.19 23.02,11.9 38.8,30.43 53.19,28.21 15.36,-2.37 29.13,-28.35 50.43,-42.03 23.65,-15.18 82.32,-25.36 103.63,-24.18 53.43,2.97 115.07,38.55 158.88,34.54 53.82,-4.91 100,-68.49 82.9,-119.78 -28.72,-86.11 -195.46,-125.34 -286.85,-150.05 -21.61,-5.84 -24.02,-6.95 -24.02,-11.09 z m 1685.56,299.51 v -196.54 c 0,-22.38 0.17,-26.43 1.71,-40.54 3.8,-34.96 29.68,-57.85 90.55,-67.89 20.42,-3.38 25.18,-3.75 47.56,-3.75 h 979.28 v 50.7 c 0,0 -299.48,8.22 -497.38,35.65 -95.02,13.17 -330.49,66.87 -428.29,113.98 -76.51,36.86 -193.43,108.39 -193.43,108.39 z m 2126.22,-454.69 -80.73,-41 c 0,0 -16.2,46.08 -31.8,76.44 -35.01,68.16 -128.69,112.57 -203.78,79.44 -78.08,-34.44 -100.52,-83.51 -120.89,-24.18 -61.15,178.05 76.81,348.56 254.9,331.59 52.8,-5.03 121.14,-23.11 135.4,-59.82 8.29,-21.36 0.76,-52.23 0,-83.87 -2.06,-85.95 28.45,-99.96 61.24,-176.43 7.4,-17.24 28.47,-71.86 10.45,-88.5 -2.35,-2.17 -4.83,-3.54 -24.79,-13.67 z m 1866.65,-270.86 -209.04,-18.95 -234.17,392.32 c -11.47,19.22 -12.81,21.94 -13.42,27.19 -1.66,14.63 3.67,23.31 25.96,30.08 16.67,5.08 25.96,-1.37 40.34,-20.72 36.58,-49.23 107.08,-184.17 107.08,-184.17 v 115.64 c 0,22.39 -0.86,26.88 -8.54,44.99 -5.69,13.44 -14.46,26.47 -22.55,37.36 -14.97,20.11 -27.65,32.88 -31.09,46 -4.29,16.38 5.8,33.31 8.88,71.89 3.33,41.72 -1.51,108.74 -1.51,108.74 0,0 206.91,-273.54 272.41,-392.43 27.45,-49.89 62.55,-127.81 65.65,-196.18 1.2,-27.53 0,-61.76 0,-61.76 z m -4324.45,472.09 h -108.73 c -22.39,0 -26.16,0.79 -37.79,7.85 -29.24,17.75 -38.69,40.6 -40,90.25 -0.68,25.72 0,60.79 0,60.79 0,0 23.78,1.91 39.24,0 17.64,-2.18 24.45,-9.35 34.86,-19.97 18.8,-19.18 49.32,-49.66 73.92,-62.38 18.39,-9.51 34.75,-13.33 38.5,-25.83 5.03,-16.76 0,-50.71 0,-50.71 z m 3866.73,6.64 -314.81,-148.81 -47.91,48.54 366.49,186 c 19.95,10.13 23.06,12.41 31.04,22.84 16.27,21.28 29.85,24.82 33.52,20.44 22.01,-26.25 8.88,-84.09 -31.88,-109.63 -12.57,-7.87 -16.21,-9.81 -36.45,-19.38 z m -3645.68,34.81 v -75.99 c 0,0 -12.55,-1.05 -20.21,-2.18 -4,-0.58 -6.67,-1.19 -9.73,-2.61 -4.14,-1.9 -7.08,-1.95 -29.41,-0.43 l -51.78,3.53 c -22.33,1.52 -25.75,2.05 -34.13,5.29 -28.95,11.18 -33.35,33.04 -41.25,83.44 -4.74,30.26 3.72,72.63 36.89,58.03 21.33,-9.39 46.98,-51.98 66.73,-65.63 9.42,-6.51 17.5,-6.43 38.27,-5.54 17.7,0.76 44.62,2.09 44.62,2.09 z m 2417.81,20.72 -5.25,-78.94 c -1.49,-22.33 -1.44,-26 0.49,-36.67 1.43,-7.91 3.98,-13.9 8.22,-22.55 8.69,-17.72 24.45,-46.57 24.45,-46.57 0,0 4.22,92.11 17,129.47 5.93,17.36 15.5,25.71 26.94,20.72 36.83,-16.06 50.76,-78.38 52.5,-112.6 3.75,-73.92 -19.31,-173.9 -6.91,-226.03 16.72,-70.25 65.41,-158.67 65.41,-158.67 0,0 -106.46,55.69 -162.12,100.09 -95.07,75.86 -155.52,217.28 -138.16,321.36 5.84,35.02 36.36,117.62 82.89,117.3 14.36,-0.09 34.54,-6.91 34.54,-6.91 z m -752.5,-515.12 c -5.34,10.52 -13.36,19.22 -21.2,28.11 -68.9,78.21 -140.53,169.21 -228.1,148.52 -21.95,-5.19 -55.12,-17.01 -55.12,-17.01 0,0 -0.73,22.6 0,41.88 3.9,103.37 74.02,213.49 165.79,248 88.59,33.31 214.14,6.8 241.78,-69.08 20.4,-55.99 33.78,-312.3 20.72,-337.39 -9.48,-18.23 -40.59,-31.3 -92.48,-50.24 -21.06,-7.69 -24.2,-6.96 -31.39,7.21 z m -3254.15,383.87 v 13.82 h -13.82 v -13.82 z m 5262.87,-434.44 -207.26,355.98 c 0,0 67.51,42.05 95.43,57.74 14.75,8.29 20.2,8.29 25.42,0 35.47,-56.27 241.29,-415.01 241.29,-415.01 0,0 -63.57,-14.57 -97.19,-20.2 -11.93,-2 -20.09,-2.87 -30.13,-1.72 -13.54,1.55 -16.3,3.87 -27.56,23.21 z m -1575.64,236.93 -17.42,-261.37 c -1.48,-22.34 -1.27,-26.5 2.15,-41.57 9.4,-41.43 30.85,-44.96 68.74,-86.73 1.98,-2.19 3.16,-3.9 3.45,-10.36 0.19,-4.19 0,-10.37 0,-10.37 h -6.91 v -6.9 c 0,0 -37.29,-1.52 -60.79,0 -96.81,6.26 -184.81,110.15 -218.98,186.51 -32.27,72.11 -72.72,266.8 -27.64,324.68 16.38,21.02 55.03,45.9 90.5,48.36 18.67,1.29 44.21,0 44.21,0 0,0 -15.5,-123.38 -20.72,-174.08 -2.12,-20.55 4.09,-39.93 17.27,-53.89 14.04,-14.88 37.99,-36.77 37.99,-36.77 0,0 -4.13,48.6 0,98.95 6.51,79.28 33.54,162.91 33.54,162.91 0,0 32.8,-40.65 45.9,-66.2 6.19,-12.08 7.99,-20.78 8.94,-31.82 1.28,-14.89 1.26,-19.02 -0.23,-41.35 z M 7328.16,2967.7 6259.1,2353.48 c -19.41,-11.14 -23.31,-13.84 -38.98,-26.89 -11.63,-9.69 -21.22,-21 -30.48,-33.46 -60.51,-81.45 -109.58,-219.85 -166.82,-304.87 -48.57,-72.14 -169.42,-170.57 -248.12,-192.9 -90.24,-25.59 -260.88,-44.36 -276.32,-62.17 -19.38,-22.34 -47.37,-58.11 -59.83,-58.72 -20.43,-1 -51.09,8.06 -51.09,8.06 l 62.56,132.4 c 0,0 97.52,10 151.98,21.88 71.04,15.51 167.91,71.95 217.6,113.98 36.2,30.62 237.53,282.85 353.91,426.26 14.1,17.38 17.82,20.56 37.17,31.81 l 1045.01,607.09 c 19.35,11.25 23.25,13.72 38.95,24.73 48.82,34.21 95.04,129.29 120.71,160.46 37.42,45.45 138.14,117.21 189.97,151.98 98.04,65.77 1414.31,706.49 1461.05,746.07 26.47,22.41 87.24,90.04 79.44,138.16 -1.98,12.23 -6.9,27.63 -6.9,27.63 0,0 -1707.21,-905.18 -1747.73,-942.94 -128.54,-119.77 -251.06,-294.58 -303.96,-331.59 -100.09,-70.02 -594.09,-321.22 -594.09,-321.22 0,0 -1.28,19.74 0,33.16 2.23,23.27 26.18,53.9 34.54,63.55 29.57,34.13 245.29,131.37 321.22,193.43 54.52,44.54 108.31,131.22 120.9,210.69 10.08,63.65 13.81,172.7 13.81,172.7 l 946.16,462.28 c 20.11,9.83 23.17,11.01 30.63,11.87 5.53,0.63 10.97,-0.01 16.59,-0.95 84.38,-14.07 162.18,-56.91 194.8,-2.35 3.76,6.29 4.68,11.87 0,23.07 -8.62,20.65 -36.26,60.39 -36.26,60.39 0,0 232.12,126.87 291.72,139.95 40.81,8.95 162.12,-28.06 172.84,11.46 6.81,25.12 0,80.69 0,80.69 l 468.18,231.85 c 20.06,9.93 24.73,11.55 46.71,16.12 37.64,7.84 92.55,7.11 106.83,-20 17.35,-32.95 -14.73,-137.62 -24.17,-161.24 -42.97,-107.43 -111.9,-171.93 -203.79,-231.42 -95.41,-61.76 -1152.36,-542.72 -1333.25,-645.9 -57.65,-32.88 -144.9,-83.79 -176.16,-131.25 -27.06,-41.09 -38.22,-102.62 -69.08,-145.07 -13,-17.88 -29.5,-32.38 -46.39,-46.31 -17.31,-14.27 -21.39,-17.1 -40.8,-28.25 z m -601.49,1335.03 c 0,0 115.24,69.89 148.42,70.09 37.43,0.22 67.06,-23.95 67.06,-23.95 V 3716.9 l -104.33,-62.44 z m -370.78,-844.21 33.62,903.18 c 0,0 51.92,2.65 103.76,-6.91 65.5,-12.09 130.89,-43.68 130.89,-43.68 l 27.86,-746.19 c 0,0 -214.2,-145.77 -259.06,-156.53 -9.87,-2.37 -12.76,0.97 -24.17,10.36 -3.21,2.64 -7.09,5.76 -9.79,9.43 -3.62,4.94 -3.94,7.98 -3.11,30.34 z m 88.88,847.91 v -587.18 h 11.06 c 0,0 37.56,465.47 44.21,561.9 0.69,10 -18.66,25.19 -32.19,25.28 -10.05,0.07 -23.08,0 -23.08,0 z m 3088.52,-353.34 c 0,0 -133.29,-41.02 -176.09,-40.42 -11.75,0.17 -19.97,8.58 -17.96,18.38 3.22,15.74 15.53,37.05 13.81,58.99 -3,38.49 -99.46,174.34 -95.94,199.27 6.06,42.92 46.08,90.98 46.08,90.98 z m -5202.37,188.94 v -22.12 c 0,0 9.3,-0.88 16.58,0 31.11,3.8 74.27,94.5 80.13,116.06 2.71,9.94 3.48,17.94 0,22.1 -21.43,25.65 -69.55,-44.57 -86.35,-75.98 -3.19,-5.96 -6.45,-12.25 -8.01,-18.96 -2.12,-9.05 -2.35,-11.16 -2.35,-21.1 z m 1823.72,-191.92 v -273 c 0,-22.38 -0.47,-27.31 -4.66,-49.31 -11.39,-59.77 -27.8,-160.52 -40.25,-177.96 -33.63,-47.16 -102.71,-93.66 -102.71,-93.66 0,0 -39.54,73.89 -73.44,117.83 -33.75,43.76 -79.79,75.63 -117.3,79.45 -57.66,5.86 -241.92,-34.68 -241.92,-34.68 v -47.55 c 0,-21.37 -1.76,-25.5 -17.64,-41.3 -22.54,-22.45 -127.8,-118.98 -155.06,-128.62 -20.53,-7.26 -49.03,-12.26 -49.03,-12.26 l 12.6,165 c 1.7,22.32 1.51,26.43 -1.91,41.16 -15.76,67.65 -135.32,101.88 -210.48,92.79 -73.68,-8.91 -156.18,-81.95 -158.75,-141.62 -1.48,-34.38 37.1,-62.9 32.36,-91.41 -2.11,-12.65 -83.16,-81.29 -100.06,-84.74 -24.65,-5.04 -47.94,13.6 -56.64,43.66 -14.98,51.72 11.35,216 31.08,267.2 32.11,83.32 93.55,152.96 169.25,196.87 84.4,48.97 195.79,90.55 269.41,145.08 42.46,31.44 72.35,67.19 117.44,107.07 39.49,34.93 211.56,144.35 239.02,151.98 17.85,4.96 21.82,1.27 16.57,-22.11 -23.67,-105.44 -181.77,-331.21 -227.96,-375.1 -47.95,-45.57 -117.57,-105.85 -127.8,-127.8 -4.08,-8.76 -6.72,-17.81 -3.46,-20.73 9.75,-8.71 80.98,34.74 96.72,44.9 198.67,128.27 265.09,291.82 419.85,555.38 11.33,19.3 13.01,21.49 16.73,21.92 18.01,2.06 33.89,-17.21 40.07,-28.11 32.21,-56.76 24.06,-175.35 3.46,-234.87 -19.47,-56.21 -50.87,-129.69 -44.91,-138.16 3.64,-5.16 12.43,-4.8 23.08,0 49.57,22.37 167.35,149.06 202.54,158.88 20.15,5.63 35.73,3.34 41.66,-29.46 1.92,-10.66 2.14,-14.33 2.14,-36.72 z m 2132.97,141.59 -159.81,-78.28 c -20.1,-9.85 -22.89,-11.01 -27.85,-11.57 -3.69,-0.42 -8.8,-1.27 -11.06,0.63 -2.94,2.46 -1.12,9.52 -2.11,14.9 -0.74,3.96 -2.99,7.01 -4.8,11 -12.81,28.15 7.28,171.81 7.28,171.81 l 137.83,62.27 c 0,0 68.34,-94.11 87.13,-134.34 4.87,-10.43 5.49,-16.45 -1.67,-23.07 -2.35,-2.16 -4.84,-3.5 -24.94,-13.35 z m -800.86,-167 8.04,209.03 c 0,0 9.57,1.19 16.59,0 10.2,-1.72 23.94,-20.69 26.8,-34.28 1.37,-6.45 1.72,-9.65 3.54,-31.96 6.48,-79.45 14.16,-208.79 25.61,-237.71 15.46,-39.03 59.06,-94.42 44.9,-110.53 -21.2,-24.13 -111.32,37.81 -145.07,65.63 -81.73,67.35 -135.09,151.61 -151.97,256.56 -10.5,65.24 -4.37,147.1 52.91,168.28 25.85,9.56 67.54,-10.7 71.43,-18.38 11.47,-22.64 -12.17,-80.4 -13.82,-119.92 -0.94,-22.6 8.22,-45.87 31.09,-89.67 12.84,-24.6 29.95,-57.05 29.95,-57.05 z M 4662.5,4099.19 c 1.6,-0.66 -0.06,-4.73 0,-6.91 0.06,-1.96 2.13,-2.48 3.77,-3.14 7.53,-3.03 6.18,-16.92 3.14,-30.01 -9.82,-42.36 -106.51,-188.88 -149.62,-208.63 -9.86,-4.51 -18.96,-4.78 -23.08,0 -20.13,23.36 81.14,192.04 103.62,217.61 9.11,10.35 42.84,39.14 62.17,31.08 z m 3141.32,-228.06 -126.2,-58.52 c -20.3,-9.42 -23.14,-10.53 -28.4,-11.13 -28.65,-3.28 -33.72,27.28 -36.99,60.35 -4.1,41.53 -7.21,113.14 -7.21,113.14 l 141,65.13 c 0,0 12.09,-27.35 25.1,-47.98 13.54,-21.5 87.2,-81.04 57.86,-108.13 -2.34,-2.16 -4.85,-3.45 -25.16,-12.86 z m 1466.34,16.67 c 5.73,-9.28 -4.07,-18.34 -6.91,-20.03 -53.17,-31.56 -143.86,-64.31 -151.98,-51.81 -7.08,10.91 7.02,98.61 16.49,142.29 4.72,21.8 14.67,45.24 42.92,58.04 27.62,12.52 60.93,-66.07 99.48,-128.49 z m -329.93,-942.25 h 1683.87 c 0,0 0.6,16.45 0,27.63 -0.7,16.07 -3.7,21.25 -10.3,27.63 -49.4,47.82 -80.4,55.17 -72.6,109.15 8.1,55.82 67.6,96.95 120.9,98.09 19.6,0.43 38.3,-6.07 58.7,-13.81 115.2,-43.63 284.9,-126.73 418,-186.52 93.1,-41.84 309.3,-118.55 428.3,-151.97 80.7,-22.67 178.3,-48.56 178.3,-48.56 0,0 -468.2,-114.51 -734.4,-189.77 -222.3,-62.86 -256.3,-87.82 -407.6,-172.7 -18,-10.12 -34.5,-27.99 -38,-44.9 -3.4,-16.94 -3.4,-41.45 -3.4,-41.45 0,0 445.1,166.11 742.6,269.41 130,45.17 641,195.63 735.7,145.07 6.9,-3.71 7.1,-9.07 0,-27.64 -2,-5.27 -4.6,-11.62 -8.3,-16.65 -5,-6.77 -8,-8.05 -29.8,-12.84 -198.5,-43.41 -410.1,-85.58 -594,-136.29 -117.6,-32.44 -535.4,-160.89 -659.7,-227.97 -104.2,-56.19 -163,-113.06 -216.5,-89.8 -85.6,37.2 -102.9,139.13 -21.9,214.14 46.8,43.23 90.4,40.03 96.8,82.9 2.3,15.65 3.4,41.45 3.4,41.45 H 8940.23 c -22.38,0 -27.28,-0.61 -49.03,-6.12 -57.82,-14.64 -98.69,-38.67 -97.7,-66.42 1.13,-31.2 75.45,-131.36 100.17,-162.34 307.11,-384.77 775.13,-519.63 1238.63,-545.73 71.9,-4.05 395.1,15.06 408.9,24.18 49.9,32.96 -30.1,61.97 -107,155.43 -69,83.73 -61.4,187.49 43.5,207.24 92.5,17.42 250.2,-117.56 346.8,-172.7 163.3,-93.28 498.9,-203.39 697.7,-238.33 88.6,-15.58 197.5,-30.61 197.5,-30.61 0,0 -373.6,-61.27 -632.7,-93.73 -745.6,-93.4 -1755.52,-55.79 -2286.59,366.12 -98.71,78.43 -233.89,226.89 -293.59,355.77 -89.54,193.31 -74.89,273.63 -231.42,348.85 -36.63,17.61 -67.33,27.17 -110.52,34.54 -87.6,14.95 -948.38,10.36 -948.38,10.36 0,0 112.56,53.69 164.31,89.81 3.75,2.62 63.48,51.81 78.3,72.33 11.35,15.73 15.1,17.47 37.48,17.47 h 822.61 c 0,0 28.71,86.99 52.91,145.07 120.31,288.68 492.08,532.34 746.07,639 214.61,90.11 438.5,144.14 663.17,179.61 102.24,16.13 580.75,52.75 676.95,51.8 246.9,-2.43 751.2,-64.09 1139.9,-75.98 64.3,-1.97 398,-55.71 407.5,-65.63 18,-18.83 17.7,-32.87 3.5,-51.81 -8.3,-11.02 -496.3,-149.93 -763.3,-221.06 -62.8,-16.72 -245,-91.24 -304,-124.34 -76.2,-42.73 -319.2,-207.59 -442.1,-227.97 -111.5,-18.47 -147.4,83.34 -138.2,198.95 2.2,26.77 7,59.57 16.6,63.56 2.6,1.09 5.6,0.07 7.5,-3.52 10.2,-19.2 0.2,-36.6 18,-27.1 19.5,10.45 68.9,69.79 75.4,90.44 10,32.42 -25.5,41.93 -71.2,43.8 -440.1,18 -1169.9,-60.29 -1469.33,-428.3 -52.3,-64.28 -151.55,-193.27 -38.88,-205.54 14.11,-1.53 18.16,-1.7 40.54,-1.7 z m -43.1,766.79 c 0,0 10.44,39.25 13.81,66.59 5.2,42.22 -6.49,56.08 0,73.92 6.93,19.05 34.31,42.55 58.36,39.8 5.54,-0.63 7.42,-2.85 18.72,-22.17 l 47.27,-80.77 v -17.55 l -121.59,-59.82 z m -1465.63,-7.73 -1069.59,-581.2 c 0,0 -40.8,32.96 -76.02,70.83 -33.99,36.54 -62.77,77.65 -62.77,77.65 l 1116.06,587.61 c 0,0 22.06,-40.49 45.09,-67.72 13.94,-16.49 64.14,-50.48 68.36,-71.69 0.64,-3.24 -1.47,-4.79 -21.13,-15.48 z M 10486,3328.25 c -5.5,-14.06 9.7,-27.37 18.3,-30.39 9.7,-3.38 18.6,-2.44 28.6,0 48.2,11.66 259.9,150.95 395.2,227.96 55.4,31.57 189.5,86.24 262.5,107.08 161.1,45.98 431.4,133.9 442.1,146.17 8.1,9.22 8.3,19.07 0,23.07 -31.7,15.33 -245.9,-26.26 -297,-37.99 -79,-18.11 -237.1,-71.94 -324.7,-110.53 -85.8,-37.76 -428.2,-226.34 -476.7,-262.5 -17.1,-12.79 -36.2,-31.85 -48.3,-62.87 z m -1719.86,318.34 c 0,0 -57.57,-35.41 -100.43,-65.5 -102.69,-72.08 -215.06,-205.42 -279.78,-307.41 -66.86,-105.36 -149.63,-265.96 -149.63,-265.96 h -734.75 c 0,0 51.18,147.76 79.59,193.42 7.54,12.11 13.47,17.04 24.18,24.18 64.84,43.22 304.74,167.32 304.74,167.32 0,0 42.42,-30.25 75.21,-49.88 149.2,-89.32 302.16,-65.49 414.48,13.82 29.07,20.53 92.29,92.46 100.16,113.98 25.14,68.69 29.8,188.82 48.7,208.17 36.61,37.5 167.87,97.72 167.87,97.72 z m -52.08,-521.43 c -27.42,-59.06 3.94,-114.2 57.34,-138.16 37.46,-16.81 55.69,71.2 125.73,183.06 160.71,256.69 622.56,375.85 887.67,417.94 118.72,18.84 317.3,36.45 389.6,34.54 130.2,-3.45 324.5,-8.29 350.8,0 31.4,9.89 69.9,35.34 57.5,57.61 -23.5,42.08 -247.7,34.19 -302.6,32.19 -642.23,-23.45 -970.03,-100.12 -1431.33,-442.11 -58.6,-43.44 -106.06,-83.36 -134.71,-145.07 z m -490.1,237.64 143.88,122.7 -216.78,-8.03 v 16.58 l 301.6,149.21 h 29.98 c 0,0 1.42,-45.26 0,-71.84 -3.87,-72.53 -63.97,-153.65 -103.62,-187.21 -17.79,-15.05 -49.72,-30.55 -71.84,-31.09 -33.36,-0.82 -83.22,9.68 -83.22,9.68 z m -4400.09,121.58 c -1.7,2.18 -7.61,2.16 -11.05,0 -12.03,-7.55 6.1,-41.17 8.84,-65.48 3.79,-33.62 -36.73,-86.22 -54.85,-93.41 -19.03,-7.54 -44.07,-0.65 -72.81,0 -28.68,0.65 -61.04,-4.91 -88.43,-17.27 -47.48,-21.43 -90.4,-66.84 -89.8,-12.71 0.22,19.59 10.84,48.9 13.82,74.88 3.91,34.19 -5.44,62.61 0,91.05 12.07,63.13 124.66,178.98 205.86,168.01 89.73,-12.14 166.68,-124.27 180.99,-214.15 6.53,-41.07 -0.19,-53.12 -20.73,-93.26 -17.22,-33.68 -21.72,-42.95 -37.3,-38 -10.03,3.19 -21,9.26 -24.87,18.38 -9.3,21.9 33.71,83.9 27.63,119.78 -3.8,22.46 -26.17,47.87 -37.3,62.18 z m -321.92,-103.63 h -34.54 l 28.78,-107.89 c 0,0 -84.47,21.62 -135.85,25 -58.41,3.84 -139.86,-29.02 -172.7,-75.99 -17.7,-25.32 -31.65,-61.78 -41.45,-82.9 -2.02,-4.35 -3.86,-8.05 -10.36,-10.36 -7.37,-2.62 -20.72,-3.45 -20.72,-3.45 v 127.38 c 0,22.39 0.44,27.32 4.4,49.37 25.01,139.22 63.61,233.13 195.79,258.45 66.63,12.77 132.88,-9.09 155.57,-62.17 17.41,-40.73 31.08,-117.44 31.08,-117.44 z m 2191.47,-265.97 c 0,0 84.7,-91.24 129.63,-151.96 30.32,-40.97 71.52,-115.53 79.45,-162.34 7.07,-41.8 -2.4,-86.68 7.43,-125.11 7.99,-31.24 28.73,-58.21 37.47,-88.9 26.77,-94.03 -35.23,-196.06 -124.35,-224.65 -144.85,-46.46 -218.73,21.27 -241.78,166.48 -3.59,22.63 -6.11,42.47 0,62.73 11.3,37.46 52.13,76.4 64.47,112.25 18.72,54.37 -21.54,200.33 -78.28,231.91 -19.95,11.1 -55.04,15.26 -71.43,10.36 -18.76,-5.61 -46.51,-38.56 -73.64,-65.63 -19.17,-19.12 -206.1,-114.77 -236.26,-120.89 -27.41,-5.56 -51.61,5.87 -60.79,48.36 -3.94,18.24 3.16,37.34 17.27,55.26 19.71,25.04 59.77,60.56 59.77,60.56 0,0 -64.58,27.06 -94.31,49.97 -63.49,48.93 -48.01,130.72 -20.72,207.24 11.17,31.32 26.14,67.6 51.81,86.35 34.1,24.92 68.74,25.86 48.36,67.98 -4.33,8.93 -11.29,16.13 -20.73,21.83 -64.68,39.05 -115.87,18.43 -124.34,80.82 -10.29,75.71 53.95,109.75 134.01,116.06 62.8,4.94 108.99,-3.71 145.76,-55.27 9.75,-13.67 15.68,-27.05 17.27,-43.66 8.27,-86.44 -68.65,-227.31 39.24,-198.12 12.7,3.44 24.4,9.09 36.75,17.27 136.18,90.17 144.75,189.95 241.78,117.44 61.86,-46.23 70.22,-98.39 89.8,-178.92 2.88,-11.83 5.74,-21.15 0,-34.13 -11,-24.9 -53.64,-63.29 -53.64,-63.29 z m -1500.66,279.79 v -74.33 c 0,-22.38 -0.38,-27.14 -3.75,-47.56 -12.23,-74.08 -27.31,-54.87 -93.1,-57.72 -54.46,-2.35 -90.28,-35.19 -110.39,-79.44 -2.29,-5.03 -4.6,-10.25 -5.53,-15.77 -1.24,-7.44 -1.19,-10.75 0.6,-33.06 l 12.49,-156.27 -76.64,53.81 c 0,0 9.22,35.91 13.81,62.45 5.32,30.75 4.43,48.95 0,70.19 -8.18,39.28 -25.43,103.32 -20.72,125.72 4.11,19.58 16.17,35.49 24.18,55.27 5.61,13.86 9.23,29.63 10.36,45.87 6.48,93.46 -26.51,120.13 41.45,157.91 80.57,44.82 192.98,40.57 276.32,-27.63 93.5,-76.5 101.26,-264.21 65.62,-376.48 -4.39,-13.84 -42.35,-120.57 -69.77,-124.35 -7.45,-1.03 -16.58,0 -16.58,0 0,0 -2.26,39.02 0,71.84 5.66,81.92 39.52,125.23 41.45,173.4 2.49,61.86 -20.32,98.42 -51.81,155.43 -5.39,9.76 -9.25,18.73 -21.41,20.72 -6.94,1.14 -16.58,0 -16.58,0 z m 5598.26,34.54 h 11.06 l -6.91,78.34 c 0,0 230.93,37.53 248.73,25.28 11.4,-7.88 -30.5,-91.03 -65.67,-138.16 -39.41,-52.85 -172.5,-137.97 -243.85,-124.34 -60.54,11.56 -115.2,65.72 -136.09,117.43 -11.46,28.36 -24.83,69.54 -24.83,69.54 0,0 91.98,22.84 136.05,34.09 43.01,10.97 48.83,4.88 67.22,-40.53 7.89,-19.48 9.32,-21.65 14.29,-21.65 z M 10518.1,2987 H 8912.31 c 0,0 25.99,56.22 57.35,110.53 40.77,70.62 90.6,138.01 90.6,138.01 0,0 32.06,-60.88 57.92,-100.02 66.21,-100.18 164.21,-139.9 276.32,-103.62 15.43,4.99 30.04,11.38 41.45,20.73 23.37,19.13 33.36,50.66 52.92,58.71 21.92,9.03 55.88,-11.44 92.15,-13.81 41.46,-2.72 113.08,25.34 134.71,55.26 17.8,24.62 14.47,61.57 31.08,79.44 17.9,19.25 63.79,15.97 103.62,27.63 70.1,20.54 181.77,126.21 217.57,189.98 17.8,31.57 38,75.98 38,75.98 0,0 61,2.18 105,0 30.1,-1.48 95.3,-9.21 102.3,-18.37 4.4,-5.86 2.8,-16.65 0,-28.6 -25.4,-106.96 -55.9,-154.38 -6.9,-232.8 20.8,-33.39 46.7,-56.74 82.9,-69.08 37.4,-12.78 78.2,-10.07 86,-20.54 9,-12.11 -17.5,-63.63 -5.2,-94.6 13,-32.94 48,-74.83 48,-74.83 z m -4909.2,470.86 v 34.6 c 0,0 72.91,14.9 118.82,19.55 12.55,1.27 76.83,3.33 101.17,-5.17 13.4,-4.68 16.28,-7.25 28.82,-25.79 l 151.96,-224.64 h 181.58 c 0,0 35.86,-75.87 70.46,-117.44 36.72,-44.11 72.01,-49.57 88.89,-76.02 32.96,-51.63 9.25,-219.89 -33.62,-290.1 -47.24,-77.37 -201.44,-131.98 -293.6,-93.26 -86.43,36.32 -101.66,166.05 -20.72,227.96 10.91,8.35 21.87,14.34 41.45,20.73 22.12,7.21 55.27,14.92 55.27,14.92 0,0 0.64,25.16 -6.92,36.89 -8.42,13.08 -79.84,-18.36 -115.22,-13.82 -54.76,7.03 -90.21,106.64 -116.19,145.07 -8.63,12.76 -18.96,23.62 -31.09,31.09 -22.71,13.97 -51.69,16 -62.17,31.09 -13.41,19.3 3.49,60 0,96.84 -6.84,72.16 -65.79,140.26 -135.13,162.57 -21.38,6.88 -23.76,9.38 -23.76,24.93 z m -352.31,5.79 c -2.39,-10.58 7.27,-28.22 6.91,-42.83 -0.49,-20.21 -20.12,-34.65 -31.09,-53.88 -14.18,-24.9 -17.47,-83.28 7.61,-96.71 28.83,-15.46 14.91,24.02 16.57,49.73 1.75,27.03 26.91,68.43 37.24,94.39 7.82,19.65 7.88,39.45 -20.66,49.3 -7.01,2.42 -15.66,4.05 -16.58,0 z m 4089.89,-92.76 173.01,68.1 c 0,0 55.08,-104.67 99.54,-147.93 28.44,-27.67 70.5,-42.37 51.79,-78.45 -12.09,-23.31 -98.82,-45.85 -117.43,-46 -49.41,-0.41 -84.41,26.44 -120.89,75.98 -34.3,46.57 -86.02,128.3 -86.02,128.3 z m -213.28,-122.1 171.25,104.44 c 0,0 61.67,-99.64 103.87,-152.09 54.02,-67.14 90.64,-69.68 20.72,-107.07 -69.3,-37.06 -154.89,-48.11 -203.78,10.36 -32.2,38.51 -92.06,144.36 -92.06,144.36 z m -3241.07,-54.55 c 0.36,-4.13 9.26,-2.35 16.58,0 29.49,9.46 59.27,54.21 52.5,77.37 -5.81,19.9 -33.86,54.8 -46,60.79 -9.38,4.62 -20.62,4.31 -23.08,0 -2.56,-4.5 4.44,-13.34 6.91,-27.63 5.12,-29.7 -9.32,-82.95 -6.91,-110.53 z m 567.48,-122.65 420.37,233.18 h 27.63 c 0,0 8.02,-64.54 6.91,-110.53 -2.14,-88.77 -43.52,-159.45 -103.62,-203.79 -141.65,-104.5 -330.15,-146.11 -369.58,-279.77 -8.93,-30.28 -2.97,-52.7 -13.82,-75.99 -6.12,-13.16 -206.49,-129.79 -231.41,-134.71 -30.57,-6.03 -53.15,-4.63 -96.71,-20.72 -53.35,-19.71 -138.17,-65.63 -138.17,-65.63 0,0 26.16,132.77 50.01,162.78 11.24,14.14 24.15,17.71 32.76,27.05 8.5,9.2 12.82,24.02 21.49,29.56 13.35,8.55 37,-4.88 64.96,-7.17 137.98,-11.33 227,131.15 269.44,236.8 14.09,35.07 25.59,77.19 24.18,109.15 -2.1,47.5 -11.28,66.16 8.65,83.29 4.65,4 7.34,5.65 26.91,16.5 z m -2810.79,219.36 h 84 c 22.38,0 26.77,-0.38 43.84,-3.77 131.61,-26.19 138.75,-193.22 115.6,-293.27 -11.94,-51.61 -20.69,-60.18 -58.72,-93.26 -38.02,-33.08 -18.49,-7.92 -44.9,44.9 -13.92,27.83 -43.65,40.4 -71.16,41.45 -52.97,2.02 -162.61,-20.73 -162.61,-20.73 0,0 -15.67,33.21 -18.37,55.27 -2.59,21.09 8.21,33.64 13.81,48.21 6.62,17.23 5.71,39.59 0,74.75 -6.41,39.52 -18.87,95.2 -18.87,95.2 0,0 40.99,-2.57 60.67,6.52 13.47,6.22 16.97,17.89 22.93,28.64 8.02,14.48 11.4,16.09 33.78,16.09 z m -353.67,-391.27 47.92,90.08 c 0,0 -14.56,9.64 -31.09,17.96 -32.46,16.35 -72.53,27.64 -72.53,27.64 l 6.91,-55.27 c 0,0 -35.96,-6.8 -50.71,-6.91 -10.1,-0.07 -10.25,3 -14.92,13.82 -10.64,24.64 -44.76,89.52 -44.76,89.52 0,0 69.01,117.77 110.39,155.71 45.1,41.36 218.27,40.86 252.14,3.46 11.31,-12.49 29.21,-92.07 31.09,-138.16 1.29,-31.73 -8.04,-72.75 -18.3,-80.52 -28.86,-21.85 -134.18,-39.16 -168.22,-68.01 -24.03,-20.37 -47.92,-49.32 -47.92,-49.32 z M 5539.82,3092 c -7.69,-37.67 30.93,-38.61 72.68,-47.68 45.89,-9.97 84.34,-33.85 110.39,-78.05 10.9,-18.5 29.74,-67.77 51.81,-75.98 8.41,-3.13 9.23,1.66 6.91,11.05 -12.45,50.36 -68.38,118.99 -103.63,144.37 -38.44,27.7 -88.62,43 -88.53,57.63 0.09,15.07 53.5,29.42 85.08,70.18 9.47,12.22 22,34.17 17.27,41.44 -10.32,15.89 -37.32,3.45 -48.36,-3.45 -69.69,-43.61 -93.17,-68.41 -103.62,-119.51 z m 559.56,10.09 c 52.54,-65.47 119.28,-74.66 131.25,-124.21 8.89,-36.85 -11.03,-124.41 -47.49,-131.2 -29.73,-5.54 -54.69,12.26 -49.23,-32.38 7.03,-57.42 62.87,-61.25 110.53,-31.09 111.42,70.5 67.08,241.2 3.45,328.13 -25.64,35.04 -60.67,65.74 -105.69,75.99 -22.68,5.16 -35.62,-10.71 -42.82,-36.75 -4.33,-15.63 -7.59,-39.04 0,-48.49 z m -884.24,50.7 c -0.23,1.71 -4.55,-0.18 -6.9,0 -3.54,0.27 -2.23,6.64 -3.52,10.3 -1.61,4.58 -8.04,4.96 -13.06,3.52 -24.89,-7.16 -26.73,-64.38 -24.87,-85.66 8.12,-92.72 56.52,-141.34 150.59,-149.22 64.26,-5.38 142.16,18.8 125.73,87.6 -15.86,66.4 -121.13,52.08 -183.21,62 -30.15,4.82 -46.71,10.74 -46.76,35 -0.02,11.6 3.22,27.41 2,36.46 z M 4061.5,3086.47 v -64.93 c 0,0 4.46,0.8 6.91,0 3.88,-1.27 2.68,-7.07 3.38,-10.44 0.63,-3.03 4.5,-4.65 7.67,-3.38 16.47,6.61 19.72,93.71 33.86,117.44 14.39,24.16 59.92,1.62 75.98,-20.73 58.74,-81.68 -6.35,-260.95 -10.36,-340.56 -2.73,-54.06 0,-117.8 0,-117.8 0,0 -30.49,26.52 -51.81,50.79 -22.56,25.68 -46,76.14 -58.72,113.98 -39.93,118.85 -79.87,209.02 -37.99,300.5 3.46,7.57 8.22,9.66 23.53,3.2 6.8,-2.88 7.55,-5.68 7.55,-28.07 z m -297.04,-78.75 c 0,0 4.65,0.73 6.91,0 2.08,-0.67 2.13,-2.57 2.89,-4.01 2.41,-4.57 11.92,-4.53 19.21,-2.9 28.66,6.41 58.46,45.83 53.89,70.47 -4.67,25.1 -16.24,45.42 -35.73,38.04 -4.49,-1.69 -5.96,-4.18 -14.68,-24.79 z M 3294.71,2814.3 H 1774.39 c -22.38,0 -27.05,-1.19 -46.76,-11.9 -45.77,-24.88 -79.61,-38.35 -102.45,-29.55 -21.91,8.44 -48.78,34.52 -77.68,43.73 -62.98,20.07 -86.55,-14.19 -76.5,37.78 13.08,67.71 30.01,93.8 77.46,120.55 19.31,10.88 23.94,12.09 46.33,12.09 h 1493.23 c 22.39,0 26.67,-1.73 42.84,-17.24 25.62,-24.6 55.29,-53.7 80.96,-69.11 27.04,-16.24 79.22,-22.53 82.89,-69.77 0.6,-7.71 0,-16.58 0,-16.58 z m 1791.53,0 h -796.77 c 0,0 -8.14,52.05 -6.91,78.75 1.65,35.55 35.75,74.43 77.39,87.79 17.27,5.54 21.67,6.16 44.05,6.16 h 609.02 c 22.38,0 26.57,-1.82 41.94,-18.14 18.91,-20.11 50.09,-48.8 51.96,-64.29 4.1,-34.01 -20.68,-90.27 -20.68,-90.27 z m -1612.59,-276.28 -141.38,324.9 c -8.93,20.53 -9.12,23.52 -1.88,29.92 16.97,15.03 32.1,14.85 35.75,11.26 14.11,-13.86 47.33,-66.02 47.33,-66.02 l -6.37,85.02 c -1.67,22.32 -1.11,25.74 5.6,34.18 19.68,24.75 37.38,19.81 61.62,5.54 83.08,-48.91 61.23,-260.32 24.18,-362.67 -10.81,-29.87 -24.85,-62.13 -24.85,-62.13 z m 290.69,303.54 -72.29,-245.19 c -6.33,-21.47 -7.26,-24.11 -9.3,-26.44 -20.91,-23.89 -60.91,33.84 -66.81,44.03 -37.43,64.7 -51.75,214.94 -38,297.19 3.23,19.28 5.69,44.13 26.26,41.78 3.73,-0.43 4.71,-2.9 9.84,-24.75 4.41,-18.78 13.77,-40.84 19.17,-54.47 3.97,-10.05 7.99,-16.56 16.58,-11.06 12.84,8.23 10.42,54.08 21.41,75.99 14.87,29.64 67.4,11.38 89.8,-20.72 7.96,-11.4 13.38,-26.14 11.49,-42.66 -1.01,-8.86 -1.83,-12.23 -8.15,-33.7 z m 234.99,-27.26 h -193.42 c 0,0 -1.28,18.34 0,27.63 1.08,7.84 3.99,9.24 8.7,12.16 57.69,35.81 89.26,69.3 110.12,63.83 40.73,-10.7 73.32,-41.03 74.6,-75.99 0.44,-11.79 0,-27.63 0,-27.63 z m 1644.11,-759.89 h -125.03 c -22.38,0 -27.34,0.3 -49.62,2.97 -22.76,2.73 -45.07,7.16 -67.13,14.3 -126.44,40.94 -130.78,72.99 -200.33,34.54 -46.89,-25.92 -47.02,-47.88 -9.06,-92.26 41.68,-48.71 95.05,-85.88 160.9,-90.8 39.56,-2.95 94.68,0 94.68,0 0,0 -46.96,-150.03 -70.37,-200.33 -4.75,-10.21 -8.52,-16.31 -14.92,-20.72 -12,-8.29 -47.29,-8.29 -50.7,0 -6.3,15.3 33.14,52.52 41.44,82.89 10.91,39.88 -28.85,55.42 -66.86,48.36 -95.44,-17.73 -241.78,-243.95 -264.72,-290.14 -41.95,-84.48 -278.35,-862.892 -278.35,-862.892 0,0 -230.21,99.906 -343.37,161.727 -99.05,54.113 -89.95,112.867 -51.81,245.235 15.17,52.65 31.68,97.58 55.26,151.98 67.26,155.15 484.82,904.95 484.82,904.95 0,0 -66.67,-17.2 -80.7,-13.82 -3.31,0.8 -3.09,5.48 0,11.05 56.17,101.09 98.72,156.04 175.07,216.51 17.57,13.91 22,15.25 44.31,13.4 l 214.53,-17.84 c 22.31,-1.86 25.88,-1.84 35.76,0.18 24.46,5 43.03,26.87 34.62,48.46 -17.63,45.27 -89.07,38.83 -125.73,39.1 -94.58,0.7 -159.2,34.12 -157.5,110.53 0.12,5.69 8.12,62.26 23.66,78.69 3.57,3.79 6.11,5.47 25.4,16.83 l 414.45,244.17 c 19.29,11.36 22.38,12.73 30.96,13.71 52.14,5.96 83.39,-88.56 92.71,-148.92 7.74,-50.11 -20.29,-59.39 -55.26,-142.31 -27.02,-64.05 -15.57,-223.09 48.35,-272.86 30.79,-23.97 108.84,-48.34 145.07,-44.9 38.76,3.67 93.67,20.55 93.67,20.55 0,0 9,-27.67 9.95,-45.98 1.43,-27.3 -62.51,-85.52 -96.71,-102.38 -46.37,-22.84 -111.13,-31.62 -117.44,-49.46 -8.17,-23.11 0,-64.52 0,-64.52 z m 442.12,663.18 c 1.65,0.51 -0.34,4.83 0,6.9 0.32,1.98 2.83,1.92 4.22,2.69 2.92,1.6 0.99,6.98 -1.12,12.34 -8.39,21.41 -48.2,94.22 -74.53,88.59 -30.49,-6.51 -21.21,-50.24 -8.02,-69.08 13.02,-18.57 51.6,-50.15 79.45,-41.44 z M 4234.21,2495.14 c 7.51,-32.48 -27.87,-87.3 -48.36,-105.69 -44.56,-39.97 -83.89,-27.81 -134.71,3.46 -62.96,38.73 -81.45,111.77 -93.26,193.42 -4.98,34.5 -19.91,155.27 10.37,193.43 32.48,40.94 74.54,-67.97 96.71,-96.72 30.15,-39.11 77.48,-55.5 110.53,-82.89 28.85,-23.92 48.97,-62.89 58.72,-105.01 z m -895.3,219.7 c 4.87,-6.45 7.58,-11.99 11.07,-21.43 4.52,-12.26 10.36,-31.09 10.36,-31.09 0,0 -1374.15,13.99 -1465.88,0 -156.78,-23.91 -194.34,-44.7 -333.66,-10.36 -13.71,3.38 -21.87,5.96 -34.54,20.72 -21.11,24.6 -54.74,83.02 -54.74,83.02 0,0 60.16,-18.21 103.09,-27.75 47.81,-10.63 74.25,-10.49 103.21,-10.36 354.03,1.57 1085.95,2.39 1628.91,6.71 22.39,0.17 25.6,-0.77 32.18,-9.46 z m 472.11,-52.52 h -53.47 c 0,0 -0.55,9 0,16.58 0.93,12.8 4.97,21.56 10.34,31.19 7.23,12.96 10.52,14.4 32.91,14.4 h 60.37 c 0,0 -1.67,-8.44 -3.36,-15.53 -3.26,-13.64 -6.62,-22.21 -12.75,-31.99 -8.26,-13.18 -11.66,-14.65 -34.04,-14.65 z m 1126.01,0 h -518.65 l -94.37,62.17 h 656.26 c 0,0 1.02,-12.56 0,-22.1 -1.25,-11.8 -5.63,-18.98 -10.73,-27.43 -6.88,-11.37 -10.13,-12.64 -32.51,-12.64 z M 7574.66,1539.21 c 0,0 10.79,47.04 20.3,73.09 9.82,26.9 25.04,43.68 38,55.26 26.02,23.28 265.65,77.85 483.56,158.89 126.93,47.2 412.98,204.37 412.98,204.37 l 171.44,-162.5 c 0,0 -96.65,-194.91 -173.39,-338.92 -87.03,-163.29 -298.75,-526.51 -452.48,-632.08 -92.97,-63.843 -152.57,-65.425 -224.51,31.086 -68.19,91.474 -75.56,149.154 -138.72,160.454 -15.04,2.69 -16.8,3.76 -17.59,10.67 -2.18,19.11 2.1,27.13 36.8,22.3 10.74,-1.49 18.37,-4.53 26.25,-10.36 34.49,-25.51 73.98,-104.49 117.44,-138.161 97.52,-75.555 222.16,28.841 303.95,134.711 48.47,62.74 342.27,467.77 345.4,543.38 0.61,14.71 0,29.98 0,29.98 h -62.17 c 0,0 -0.84,23.02 0,38.69 1,18.73 4.39,26.95 10.36,37.3 36.55,63.31 82.31,104.12 65.63,140.51 -28.36,61.86 -121.65,0.09 -193.43,-47.25 -64.75,-42.71 -359.27,-223.94 -393.75,-337.25 -10.8,-35.48 5.95,-58.51 35.91,-53.06 93.8,17.07 133.12,79.04 233.5,134.71 50.85,28.2 111.15,26.27 131.25,-28.74 4.34,-11.86 3.57,-22.63 0,-34.68 -6.06,-20.47 -155.86,-203.23 -214.15,-261.26 -45.56,-45.36 -194.12,-198.65 -268.03,-183.06 -14.5,3.06 -31.94,11.6 -46.28,20.73 -46.86,29.79 -60.7,65.74 -91.85,77.14 -22.08,8.08 -220.72,-68.57 -367.54,-108.23 -238.71,-64.49 -376.61,-16.9 -459.38,203.78 -37.47,99.91 -50.52,178.31 -58.72,280.61 -8.3,103.58 -2.17,695.96 -0.14,1043.94 0.13,22.38 2.07,26.44 19.44,40.55 l 111.95,90.93 c 0,0 -13.99,-941.52 0,-1133.97 19.01,-261.43 183.3,-340.71 486.19,-322.06 123.83,7.63 225.72,27.3 225.34,141.62 -0.14,43.47 -22.54,93.56 -13.82,132.49 9.79,43.64 47.51,69.16 34.55,98.93 -3.62,8.29 -17.58,8.29 -29.99,0 -36.61,-24.46 -104.3,-114.54 -104.3,-114.54 z m -3672.38,1148.2 c 17.37,-18.62 18.4,-123.68 31.43,-183.97 18.34,-84.92 92.84,-155.56 180.3,-165.8 77.41,-9.05 128.23,44.91 140.92,122.97 2.16,13.26 2.63,25.28 0,37.3 -8.97,40.97 -54.08,81.97 -64.12,126.09 -3.68,16.16 12.92,69.84 23.49,75.93 28.22,16.29 119.48,-8.63 158.07,-41.06 96.67,-81.26 92.07,-224.05 24.17,-307.41 -90.7,-111.37 -246.83,-127.4 -383.39,-58.72 -108.88,54.76 -222.76,198.8 -176.16,314.31 10.54,26.12 59.58,86.47 65.29,80.36 z m 4324.76,-76.88 -1105.28,3.43 c 0,0 18.52,30.31 31.09,48.36 7.9,11.34 13.44,17.84 22.33,24.52 11.98,9.02 15.8,10.04 38.18,10.19 303.5,2.01 746.38,8.15 910.48,-0.17 51.35,-2.6 112.18,-7.05 167.35,-27.31 21.06,-7.73 24.27,-10.91 32.14,-31.88 161.93,-431.74 428.92,-731.38 863.93,-918.29 421.94,-181.3 929.14,-192.07 1378.84,-162.34 81,5.35 849.3,54.35 976.8,96.71 78.6,26.12 383.4,94.43 400.7,89.8 47.3,-12.71 98.3,-37.71 98.3,-37.71 0,0 -438.7,-94.88 -768.4,-148.8 -101,-16.52 -803.9,-73.58 -936.1,-75.99 -622.93,-11.37 -1158.05,48.97 -1633.7,435.2 -163.76,132.98 -367.06,380.31 -445.57,601 -14.67,41.25 -31.09,93.28 -31.09,93.28 z m -4230.47,3.43 h -11.05 v -11.05 c 0,-4.97 0.75,-7.89 7.59,-29.23 21.97,-68.64 37.85,-155.09 94.64,-173.86 24.02,-7.94 39.37,10.56 35.93,30.39 -11.18,64.39 -45.93,95.49 -105.39,164.86 -14.58,17 -16.75,18.89 -21.72,18.89 z m 1719.41,-20.72 c -18.57,-23.2 -23.15,-55.75 1.1,-69.08 34.76,-19.11 84.57,10.89 85.25,37.99 0.66,26.37 -37.16,52.09 -62.17,44.9 -8.93,-2.55 -19.83,-8.37 -24.18,-13.81 z m -957.44,-397.77 -55.38,24.72 c 0,0 27.67,103.92 35.33,203.11 5.87,75.99 0,149.22 0,149.22 h 234.87 c 0,0 13.99,-84.34 0,-126.7 -11.52,-34.91 -214.82,-250.35 -214.82,-250.35 z m 2266.51,377.05 H 8162 c 0,0 100.24,-212.83 151.4,-310.86 22.04,-42.25 34.97,-63.18 72.53,-107.08 31.66,-37 80.82,-90.33 80.82,-90.33 0,0 -275.47,-134.36 -433.13,-210.17 -79.41,-38.18 -150.07,-65.13 -193.42,-72.53 -132.25,-22.59 -256.53,-6.49 -300.5,-120.89 -5.16,-13.43 -8.59,-26.39 -10.36,-45.87 -5.96,-65.6 6.9,-205.17 6.9,-205.17 0,0 -138.18,-35.7 -211.38,-46.01 -135.43,-19.08 -251.07,40.91 -282.54,151.98 -10.16,35.86 -14.23,76.14 -17.27,126.28 -13.99,230.89 0,930.65 0,930.65 z m 1922.23,-34.54 h 1476.52 c 0,0 -25.7,-54.45 -38,-89.81 -27,-77.69 -6.9,-92.09 27.8,-157.84 16.5,-31.15 -22.8,-33.17 -69.2,-90.85 -51.6,-64.04 -34.3,-183.6 27.6,-255.59 23.2,-27 61.8,-61.79 61.8,-61.79 0,0 -189.7,-9.72 -321.3,-7.3 -414.57,7.65 -851.95,183.77 -1122.12,462.84 -65.17,67.33 -125.88,140.04 -77.65,190.25 8.71,9.08 12.16,10.09 34.55,10.09 z M 6375.7,1632.33 v 742.2 l 234.77,131.21 17.12,-1690.627 c 0.22,-22.383 1.24,-26.465 10.17,-40.812 39.53,-63.551 24.64,-242.75 -16.83,-308.735 -18.1,-28.793 -48.63,-28.855 -72.54,-10.359 -25.76,19.93 -47.25,70.828 -79.44,113.981 -74.32,99.632 -227.96,172.5 -189.97,274.109 7.33,19.605 25.2,34.297 31.64,70.058 2.01,11.133 2.9,24.305 2.9,24.305 0,0 -135.87,19.153 -248.69,42.555 -54.17,11.238 -440.83,154.545 -493.92,183.065 -81.17,43.6 -140.96,87.31 -127.8,179.74 15.21,106.82 100.81,45.37 227.96,-3.59 151.39,-58.28 429.86,-84.12 566.47,13.82 68.03,48.78 123.14,138.41 134.95,229.49 2.89,22.25 3.21,27.21 3.21,49.59 z m -431.06,615.51 h -11.06 c 0,0 -16.05,64.89 -13.81,92.57 1.49,18.5 100.94,78.54 163.02,100.85 15.99,5.75 18.75,2.37 17.21,-11.06 -0.56,-4.97 -2.55,-7.09 -19.88,-21.32 -54.86,-45.02 -78.3,-75.42 -117.1,-139.72 -11.57,-19.19 -13.41,-21.32 -18.38,-21.32 z m 361.97,69.08 v -324.68 h -11.06 c -4.96,0 -6.87,2.09 -19.07,20.87 -86.51,133.14 -131.63,169.59 -59.34,252.57 15.38,17.66 37.2,34.22 48.02,44.33 3.54,3.3 5.9,5.92 13.82,6.91 9.67,1.21 27.63,0 27.63,0 z M 4739.29,2121.23 4500.24,1676.87 c 0,0 -44.78,74.14 -58.79,106.75 -7.32,17.02 -6.25,22.73 0,22.11 11.07,-1.11 38.44,-22.14 48.35,-13.82 5.33,4.46 5.62,17.38 6.13,26.46 0.7,12.24 0.01,15.97 -6.9,37.26 l -100.5,309.31 h -23.07 l 6.91,-151.98 h -7.38 c -3.31,0 -4.33,2.41 -10.19,24.05 -24.93,92.13 -35.64,208.1 36.95,235.84 71.96,27.51 143.39,-64.3 253.48,-114.81 42.23,-19.38 94.06,-36.81 94.06,-36.81 z m 1575.3,-275.32 c -18.17,-42.35 -64.2,-42.15 -111.6,-22.91 -57.71,23.42 -169.23,115.46 -145.06,148.52 23.06,31.55 40.53,-21.07 89.8,-51.81 26.57,-16.58 66.07,-30.83 66.07,-30.83 l -99.53,169.97 30.69,78.46 161.81,-257.74 c 11.91,-18.96 12.69,-22.32 7.82,-33.66 z m -7.98,-88.54 v -164.14 c 0,-22.38 -0.36,-27.33 -3.69,-49.54 -21.2,-141.56 -150.53,-182.03 -260.88,-193.9 -21.56,-2.31 -40.37,-3.63 -71.16,0 -73.92,8.73 -216.91,46.01 -216.91,46.01 v 322.47 c 0,0 54.4,20.67 89.81,35.64 44.18,18.7 58.79,28.54 93.26,58.72 38.23,33.49 100.91,92.02 100.91,92.02 0,0 56.43,-66.04 89.05,-95.47 26.15,-23.59 76,-48.5 124.35,-51.81 24.49,-1.67 55.26,0 55.26,0 z m -778.81,-75.99 h 115.64 c 0,0 0.61,-20.38 0,-38.68 -2.97,-89.06 -24.48,-132.78 -53.76,-138.71 -40.91,-8.29 -153.48,-9.13 -153.48,-9.13 0,0 -0.71,17.71 0,33.16 1.51,32.83 24.47,114.48 54.43,142.05 11.07,10.18 14.79,11.31 37.17,11.31 z M 4924.63,617.543 5210.81,1485.06 c 7.01,21.26 8.83,25.88 18.24,46.23 38.04,82.26 85.89,138.83 140.42,122.46 44.43,-13.34 11.16,-100.32 -29.98,-234.87 -36.66,-119.92 -71.93,-247.33 -103.62,-317.77 -46.26,-102.837 -133.67,-298.04 -141.62,-338.497 -11.68,-59.531 -18.01,-129.695 -18.01,-129.695 0,0 -41.89,-11.91 -83.53,-15.375 -34.13,-2.836 -68.08,0 -68.08,0 z M 6873.07,937.66 c 12.18,-21.793 -9.63,-40.23 -25.28,-43.797 -19.7,-4.484 -73.89,6.297 -64.52,37.305 8.12,26.891 39.43,47.488 57.61,38.684 12.94,-6.266 26.64,-22.254 32.19,-32.192 z M 6769.45,493.199 c 0,0 -0.94,20.028 0,33.16 3.21,44.84 104.52,144.938 131.25,170.625 47.78,45.911 191.93,153.614 255.6,179.61 69.25,28.273 193.43,58.719 193.43,58.719 l -563.7,-442.114 z m -1728.7,-67.32 c 0,0 7.68,-46.309 8.6,-79.129 C 5053.18,211.633 4887.04,63.0625 4755.07,37.2695 4543.29,-4.125 4214.12,135.684 4058.05,265.234 3955.2,350.613 3814,549.785 3833.54,693.672 c 7.16,52.676 78.92,205.41 128.91,214.008 16.28,2.8 36.88,0 36.88,0 0,0 -63.74,-187.86 -75.99,-277.703 -29.41,-215.805 210.95,-389.016 411.03,-482.18 168.45,-78.4337 365.73,-121.8126 493.93,-10.359 41.96,36.48 106.45,105.121 127.79,155.429 12.16,28.649 20.53,64.246 41.45,89.805 16.81,20.527 43.21,43.207 43.21,43.207 z m -336.8,228.555 c 8.29,-5.227 3.94,-27.743 0,-45.18 -15.32,-67.852 -36.18,-139.656 -96.71,-129.871 -24.15,3.906 -53.58,18.586 -86.35,34.539 -99.12,48.254 -283.71,155.992 -295.89,172.703 -25.09,34.402 -18.82,126.105 29.93,162.336 69.51,51.656 90.48,-14.801 200.33,-82.895 84.5,-52.375 191.04,-75.285 248.69,-111.632 z m 89.8,-276.321 c 5.28,-2.343 2.99,-13.703 0,-23.074 -17,-53.348 -94.8,-117.785 -131.25,-134.707 -170.47,-79.144 -453.89,-16.531 -563,127.797 -74.44,98.465 -121.07,282.004 -55.27,386.851 11.28,17.965 24.1,27.774 38,27.633 13.56,-0.14 109.65,-80.738 179.61,-141.617 28.39,-24.699 267.54,-153.473 314.31,-169.246 77.42,-26.102 165.12,-50.312 217.6,-73.637 z m 135.82,197.985 h 105.97 c 0,0 2.9,-38.743 0,-66.871 -8.52,-82.657 -88.95,-135.934 -170.49,-112.739 -60.71,17.266 -12.08,35.25 28.87,75.989 10.7,10.636 14.99,20.476 20.72,41.445 6.54,23.875 14.93,62.176 14.93,62.176 z m -115.09,-75.993 c 0,0 -0.69,9.454 0,16.583 1.11,11.484 5.82,16.945 16.58,17.96 4.9,0.461 11.05,0 11.05,0 l -6.91,-34.543 z m -607.2,-383.757 c 1.56,-13.696 -0.75,-15.977 -14.52,-20.3597 -41.46,-13.1953 -44.96,-14.4727 -82.9,0 -26.13,9.9687 -50.52,29.2187 -55.26,60.9297 -2.32,15.523 0,39.234 0,39.234 h 6.9 v 13.817 h 16.58 l 107.94,-73.461 c 18.5,-12.594 20.62,-14.61 21.26,-20.16 z M 6855.72,5355.67 c 64.8,48.66 106.72,126.14 106.72,213.41 0,147.3 -119.41,266.71 -266.7,266.71 -47.62,0 -92.33,-12.49 -131.02,-34.35 -5.61,1.29 -12.63,-1.79 -9.42,8.18 6.19,19.18 45.43,18.85 27.63,37.3 -9.2,9.55 -38.57,1.37 -56.09,-12.65 -9.24,-7.39 -11.94,-10.06 -26.98,-26.64 -47.73,-52.59 -99.99,-112.09 -147.68,-153.47 -7.01,-6.08 -13.92,-11.77 -22.11,-15.69 -11.04,-5.29 -11.96,-8.34 -9.28,-30.57 20.48,-169.2 12.15,-312.72 151.62,-358.52 119.66,-39.31 327.97,-38 428.29,27.63 64.51,42.2 122.2,117.54 141.62,196.88 4.29,17.54 5.42,33.61 10.89,52.86 -8.82,84.44 136.15,64.27 -8.35,361.38 -20.68,42.5 -26.2,53.86 -26.2,53.86 -9.79,20.13 -11.76,23.76 -19.63,36.33 -45.16,72.07 -237.98,110.29 -274.48,110.38 -186.23,0.5 -323.96,-91.09 -362.67,-269.41 -6.41,-29.53 -1.31,-38.92 33.16,-27.63 28.5,9.33 82.65,46.1 111.91,75.98 29.14,29.77 64.81,70.56 124.35,63.75 12.43,-1.41 16.27,-1.95 38.39,-5.39 41.18,-6.39 96.15,-14.05 142.04,-21.9 173.06,-3.38 173.06,-230.46 170.19,-309.94 -3.35,-30.72 -6.87,-61.47 -10.4,-89.89 -7.15,-57.57 -26.47,-120.16 -83.6,-155.02 -11.95,0.66 -23.93,2.64 -32.2,6.42 z m -111.97,-21.23 c -15.51,-3.16 -31.57,-4.82 -48.01,-4.82 -132.25,0 -239.46,107.21 -239.46,239.46 0,132.25 107.21,239.46 239.46,239.46 132.25,0 239.46,-107.21 239.46,-239.46 0,-85.13 -44.43,-159.9 -111.37,-202.36 -0.15,-0.02 -0.29,-0.06 -0.43,-0.09 -26.49,-5.81 -53.56,-21.62 -79.65,-32.19"
         style="fill:#2d3748;fill-opacity:1;fill-rule:evenodd;stroke:none"
         id="path14"
         inkscape:connector-curvature="0" /></g></g></svg>