<?xml version="1.0" standalone="no"?>
<!DOCTYPE svg PUBLIC "-//W3C//DTD SVG 20010904//EN"
 "http://www.w3.org/TR/2001/REC-SVG-20010904/DTD/svg10.dtd">
<svg version="1.0" xmlns="http://www.w3.org/2000/svg"
 width="700.000000pt" height="700.000000pt" viewBox="0 0 700.000000 700.000000"
 preserveAspectRatio="xMidYMid meet">
<metadata>
Created by potrace 1.11, written by Peter Selinger 2001-2013
</metadata>
<g transform="translate(0.000000,700.000000) scale(0.100000,-0.100000)"
fill="#000000" stroke="none">
<path d="M1106 5939 c-119 -28 -233 -128 -284 -251 l-31 -73 -1 -2101 c0
-2092 0 -2102 20 -2168 37 -119 110 -202 230 -260 l65 -31 535 -2 535 -1 66
27 c73 30 142 82 184 137 35 46 74 142 79 196 2 24 5 248 5 498 l1 454 68
-111 c37 -62 110 -182 162 -268 52 -86 100 -164 105 -173 107 -180 147 -229
226 -275 90 -52 138 -59 417 -59 273 1 323 7 409 48 95 47 130 94 368 493
l225 376 0 -485 c0 -443 2 -491 19 -553 30 -111 111 -211 207 -260 91 -46 92
-46 635 -46 463 0 521 1 565 17 144 50 242 155 280 297 12 41 13 332 9 1650
-2 880 -4 1813 -5 2074 -1 261 -5 496 -10 523 -23 117 -113 239 -215 291 -92
46 -128 49 -615 45 l-455 -3 -67 -32 c-114 -54 -144 -90 -320 -388 -88 -148
-168 -281 -177 -295 -8 -14 -21 -34 -27 -45 -16 -31 -594 -1007 -612 -1035 -9
-14 -25 -40 -35 -59 -10 -19 -31 -52 -45 -75 -14 -23 -34 -56 -44 -74 -10 -18
-31 -53 -46 -77 l-27 -43 -76 126 c-42 70 -175 290 -295 490 -120 199 -226
375 -235 390 -9 15 -90 149 -179 297 -90 149 -176 293 -192 320 -16 28 -47 79
-69 115 -23 36 -49 79 -58 95 -67 122 -143 208 -214 246 -90 46 -124 49 -597
48 -245 -1 -462 -5 -484 -10z"/>
</g>
</svg>
