<?xml version="1.0" encoding="UTF-8" standalone="no"?>
<!-- Created with Inkscape (http://www.inkscape.org/) -->

<svg
   xmlns:dc="http://purl.org/dc/elements/1.1/"
   xmlns:cc="http://creativecommons.org/ns#"
   xmlns:rdf="http://www.w3.org/1999/02/22-rdf-syntax-ns#"
   xmlns:svg="http://www.w3.org/2000/svg"
   xmlns="http://www.w3.org/2000/svg"
   xmlns:xlink="http://www.w3.org/1999/xlink"
   xmlns:sodipodi="http://sodipodi.sourceforge.net/DTD/sodipodi-0.dtd"
   xmlns:inkscape="http://www.inkscape.org/namespaces/inkscape"
   width="600"
   height="600"
   viewBox="0 0 158.75 158.75001"
   version="1.1"
   id="svg8"
   inkscape:version="0.92.4 (5da689c313, 2019-01-14)"
   sodipodi:docname="logo.svg">
  <defs
     id="defs2" />
  <sodipodi:namedview
     id="base"
     pagecolor="#1e1f2a"
     bordercolor="#666666"
     borderopacity="1.0"
     inkscape:pageopacity="0"
     inkscape:pageshadow="2"
     inkscape:zoom="1"
     inkscape:cx="232.47997"
     inkscape:cy="301.74996"
     inkscape:document-units="px"
     inkscape:current-layer="layer1"
     showgrid="false"
     units="px"
     scale-x="0.26458"
     inkscape:pagecheckerboard="false"
     showborder="true"
     borderlayer="false"
     inkscape:showpageshadow="false"
     inkscape:window-width="1920"
     inkscape:window-height="1050"
     inkscape:window-x="1920"
     inkscape:window-y="0"
     inkscape:window-maximized="1"
     inkscape:snap-bbox="true"
     inkscape:bbox-paths="true"
     inkscape:bbox-nodes="true"
     inkscape:snap-bbox-edge-midpoints="true"
     inkscape:snap-object-midpoints="true"
     inkscape:snap-smooth-nodes="true"
     inkscape:snap-intersection-paths="true"
     inkscape:object-paths="true"
     inkscape:snap-bbox-midpoints="true"
     showguides="true"
     inkscape:guide-bbox="true" />
  <metadata
     id="metadata5">
    <rdf:RDF>
      <cc:Work
         rdf:about="">
        <dc:format>image/svg+xml</dc:format>
        <dc:type
           rdf:resource="http://purl.org/dc/dcmitype/StillImage" />
        <dc:title />
      </cc:Work>
    </rdf:RDF>
  </metadata>
  <g
     inkscape:label="Layer 1"
     inkscape:groupmode="layer"
     id="layer1"
     transform="translate(0,-138.24998)">
    <path
       sodipodi:type="inkscape:offset"
       inkscape:radius="5.5635042"
       inkscape:original="M 50.931641 145.92383 L 34.263672 152.4043 L 41.810547 175.83008 C 36.081577 190.08598 32.003868 212.88653 31.617188 223.18164 L 21.960938 223.31445 L 21.695312 271.33594 L 28.177734 275.03906 L 37.570312 285.09375 L 79.638672 287.3418 L 121.70898 285.09375 L 131.10156 275.03906 L 137.58398 271.33594 L 137.31836 223.31445 L 127.66211 223.18164 C 127.27543 212.88653 123.19772 190.08598 117.46875 175.83008 L 125.01562 152.4043 L 108.34766 145.92383 L 99.880859 161.13672 C 93.659798 165.79538 86.918059 168.03214 79.638672 167.75195 C 72.359286 168.03214 65.619498 165.79538 59.398438 161.13672 L 50.931641 145.92383 z "
       xlink:href="#path867"
       style="fill:#63b3ed;fill-opacity:1;stroke:none;stroke-width:15;stroke-linecap:butt;stroke-linejoin:round;stroke-miterlimit:4;stroke-dasharray:none;stroke-opacity:1"
       id="path930"
       inkscape:href="#path867"
       d="m 108.18555,140.36328 a 5.5640606,5.5640606 0 0 0 -4.69922,2.85547 l -7.802736,14.01953 c -5.071888,3.56825 -10.141954,5.17402 -15.830078,4.95508 a 5.5640606,5.5640606 0 0 0 -0.429688,0 c -5.688159,0.21894 -10.756094,-1.38658 -15.828125,-4.95508 l -7.802734,-14.01953 a 5.5640606,5.5640606 0 0 0 -6.876953,-2.48047 l -16.667969,6.48047 a 5.5640606,5.5640606 0 0 0 -3.279297,6.89063 l 6.992188,21.70312 c -4.968819,13.19511 -8.311802,30.26497 -9.408204,41.875 l -4.667968,0.0644 a 5.5640606,5.5640606 0 0 0 -5.486328,5.53125 l -0.265626,48.02149 a 5.5640606,5.5640606 0 0 0 2.802735,4.86133 l 5.751953,3.2871 8.816406,9.43946 a 5.5640606,5.5640606 0 0 0 3.769532,1.75586 l 42.068359,2.24804 a 5.5640606,5.5640606 0 0 0 0.59375,0 l 42.070313,-2.24804 a 5.5640606,5.5640606 0 0 0 3.76953,-1.75586 l 8.81641,-9.43946 5.75195,-3.2871 a 5.5640606,5.5640606 0 0 0 2.80273,-4.86133 l -0.26562,-48.02149 a 5.5640606,5.5640606 0 0 0 -5.48633,-5.53125 l -4.66797,-0.0644 c -1.0964,-11.61003 -4.43938,-28.67989 -9.4082,-41.875 l 6.99219,-21.70312 a 5.5640606,5.5640606 0 0 0 -3.2793,-6.89063 l -16.66797,-6.48047 a 5.5640606,5.5640606 0 0 0 -2.17773,-0.375 z" />
    <path
       style="fill:#63b3ed;fill-opacity:1;stroke:#1a202c;stroke-width:3.96875;stroke-linecap:butt;stroke-linejoin:round;stroke-miterlimit:4;stroke-dasharray:none;stroke-opacity:1"
       d="m 50.932293,145.9229 -16.66875,6.48229 7.546308,23.42544 c -5.72897,14.2559 -9.805461,37.05549 -10.192142,47.3506 l -9.657292,0.13229 -0.264583,48.02188 6.482292,3.70417 9.392708,10.05416 42.068751,2.24896 42.068755,-2.24896 9.3927,-10.05416 6.4823,-3.70417 -0.26459,-48.02188 -9.65729,-0.13229 c -0.38668,-10.29511 -4.46317,-33.0947 -10.19214,-47.3506 l 7.54631,-23.42544 -16.66875,-6.48229 -8.466669,15.21354 c -6.221061,4.65866 -12.961239,6.89477 -20.240626,6.61458 -7.279386,0.28019 -14.019564,-1.95592 -20.240625,-6.61458 z"
       id="path867"
       inkscape:connector-curvature="0" />
    <path
       style="opacity:1;fill:none;fill-opacity:1;fill-rule:nonzero;stroke:#000000;stroke-width:1.13927388;stroke-linecap:butt;stroke-linejoin:round;stroke-miterlimit:4;stroke-dasharray:none;stroke-opacity:1;paint-order:fill markers stroke"
       d="m 46.248858,221.20323 c -1.575723,0 -2.844271,0.9408 -2.844271,2.10941 v 7.02002 c 0,1.16861 1.268548,2.10942 2.844271,2.10942 H 113.2949 c 1.57572,0 2.84427,-0.94081 2.84427,-2.10942 v -7.02002 c 0,-1.16861 -1.26855,-2.10941 -2.84427,-2.10941 z"
       id="path916"
       inkscape:connector-curvature="0" />
    <path
       style="opacity:1;fill:none;fill-opacity:1;fill-rule:nonzero;stroke:#1a202c;stroke-width:3.96875012;stroke-linecap:butt;stroke-linejoin:round;stroke-miterlimit:4;stroke-dasharray:none;stroke-opacity:1;paint-order:fill markers stroke"
       d="m 46.116567,241.85447 c -1.575724,0 -2.844271,0.9408 -2.844271,2.10941 v 7.02002 c 0,1.16861 1.268547,2.10942 2.844271,2.10942 H 113.1626 c 1.57573,0 2.84427,-0.94081 2.84427,-2.10942 v -7.02002 c 0,-1.16861 -1.26854,-2.10941 -2.84427,-2.10941 z"
       id="path914"
       inkscape:connector-curvature="0" />
    <path
       style="opacity:1;fill:none;fill-opacity:1;fill-rule:nonzero;stroke:#1a202c;stroke-width:3.96875012;stroke-linecap:butt;stroke-linejoin:round;stroke-miterlimit:4;stroke-dasharray:none;stroke-opacity:1;paint-order:fill markers stroke"
       d="m 46.116567,262.50571 c -1.575724,0 -2.844271,0.9408 -2.844271,2.10941 v 7.02002 c 0,1.16861 1.268547,2.10942 2.844271,2.10942 H 113.1626 c 1.57573,0 2.84427,-0.94081 2.84427,-2.10942 v -7.02002 c 0,-1.16861 -1.26854,-2.10941 -2.84427,-2.10941 z"
       id="rect902" />
    <g
       aria-label="M"
       transform="matrix(0.56542934,0,0,0.56542934,89.565082,64.990207)"
       style="font-style:normal;font-weight:normal;font-size:40px;line-height:1.25;font-family:sans-serif;letter-spacing:0px;word-spacing:0px;fill:#000000;fill-opacity:1;stroke:#63b3ed;stroke-opacity:1;stroke-width:7.01900281;stroke-miterlimit:4;stroke-dasharray:none"
       id="flowRoot918">
      <path
         sodipodi:type="inkscape:offset"
         inkscape:radius="0.00044624999"
         inkscape:original="M -93.064453 208.06641 L -93.064453 342.4668 L -63.880859 342.4668 L -63.880859 263.55469 L -24.519531 328.25781 L -10.503906 328.25781 L 29.048828 261.82617 L 29.240234 342.4668 L 58.423828 342.4668 L 58.039062 208.06641 L 32.503906 208.06641 L -17.03125 291.58594 L -67.335938 208.06641 L -93.064453 208.06641 z "
         xlink:href="#path932"
         style="font-style:normal;font-variant:normal;font-weight:bold;font-stretch:normal;font-size:192px;font-family:Montserrat;-inkscape-font-specification:'Montserrat Bold';fill:#ffffff;fill-opacity:1;stroke:#63b3ed;stroke-width:7.01900291;stroke-miterlimit:4;stroke-dasharray:none;stroke-opacity:1"
         id="path935"
         inkscape:href="#path932"
         d="M -93.064453,208.06641 V 342.4668 h 29.183594 v -78.91211 l 39.361328,64.70312 h 14.015625 l 39.552734,-66.43164 0.191406,80.64063 H 58.423828 L 58.039062,208.06641 H 32.503906 l -49.535156,83.51953 -50.304688,-83.51953 z" />
      <path
         sodipodi:type="inkscape:offset"
         inkscape:radius="6.6410494"
         inkscape:original="M -93.064453 208.06641 L -93.064453 342.4668 L -63.880859 342.4668 L -63.880859 263.55469 L -24.519531 328.25781 L -10.503906 328.25781 L 29.048828 261.82617 L 29.240234 342.4668 L 58.423828 342.4668 L 58.039062 208.06641 L 32.503906 208.06641 L -17.03125 291.58594 L -67.335938 208.06641 L -93.064453 208.06641 z "
         xlink:href="#path932"
         style="font-style:normal;font-variant:normal;font-weight:bold;font-stretch:normal;font-size:192px;font-family:Montserrat;-inkscape-font-specification:'Montserrat Bold';fill:#0b0b0b;fill-opacity:1;stroke:#1a202c;stroke-width:7.01900291;stroke-miterlimit:4;stroke-dasharray:none;stroke-opacity:1"
         id="path937"
         inkscape:href="#path932"
         d="m -93.064453,201.42578 a 6.6417135,6.6417135 0 0 0 -6.640625,6.64063 V 342.4668 a 6.6417135,6.6417135 0 0 0 6.640625,6.64062 h 29.183594 a 6.6417135,6.6417135 0 0 0 6.640625,-6.64062 v -55.21875 l 27.046875,44.46093 a 6.6417135,6.6417135 0 0 0 5.673828,3.18946 h 14.015625 a 6.6417135,6.6417135 0 0 0 5.707031,-3.24414 l 27.261719,-45.78907 0.134765,56.61719 a 6.6417135,6.6417135 0 0 0 6.640625,6.625 h 29.183594 a 6.6417135,6.6417135 0 0 0 6.640625,-6.66015 L 64.679688,208.04688 a 6.6417135,6.6417135 0 0 0 -6.640626,-6.6211 H 32.503906 a 6.6417135,6.6417135 0 0 0 -5.71289,3.25195 l -43.867188,73.96289 -44.570312,-74 a 6.6417135,6.6417135 0 0 0 -5.689454,-3.21484 z" />
      <path
         d="m 29.24,342.46596 -0.192,-80.64 -39.552,66.432 H -24.52 l -39.36,-64.704 v 78.912 h -29.184 v -134.4 h 25.728 l 50.304,83.52 49.536,-83.52 H 58.04 l 0.384,134.4 z"
         style="font-style:normal;font-variant:normal;font-weight:bold;font-stretch:normal;font-size:192px;font-family:Montserrat;-inkscape-font-specification:'Montserrat Bold';fill:#1a202c;fill-opacity:1;stroke:#63b3ed;stroke-width:7.01900291;stroke-miterlimit:4;stroke-dasharray:none;stroke-opacity:1"
         id="path932"
         inkscape:connector-curvature="0" />
    </g>
  </g>
</svg>
