<?xml version="1.0" standalone="no"?>
<!DOCTYPE svg PUBLIC "-//W3C//DTD SVG 20010904//EN"
 "http://www.w3.org/TR/2001/REC-SVG-20010904/DTD/svg10.dtd">
<svg version="1.0" xmlns="http://www.w3.org/2000/svg"
 width="100.000000pt" height="100.000000pt" viewBox="0 0 100.000000 100.000000"
 preserveAspectRatio="xMidYMid meet">
<metadata>
Created by potrace 1.11, written by Peter Selinger 2001-2013
</metadata>
<g transform="translate(0.000000,100.000000) scale(0.100000,-0.100000)"
fill="#000000" stroke="none">
<path d="M0 500 l0 -500 500 0 500 0 0 500 0 500 -500 0 -500 0 0 -500z m236
271 c50 -23 93 -73 144 -171 21 -41 52 -98 67 -127 l29 -52 82 143 c45 78 88
151 95 160 11 15 19 -15 51 -196 42 -239 65 -305 118 -338 18 -11 44 -20 58
-21 19 -1 15 -3 -14 -10 -82 -19 -175 37 -214 129 -11 26 -27 92 -36 147 -10
55 -19 101 -20 103 -4 3 -128 -212 -142 -246 -8 -20 -18 -5 -84 123 -41 79
-78 145 -81 145 -6 0 -29 -186 -29 -237 0 -22 5 -33 18 -36 9 -3 -14 -5 -53
-5 -49 -1 -64 2 -49 8 12 5 25 14 29 20 15 25 52 319 42 337 -26 47 -74 97
-110 113 -24 11 -34 20 -25 23 28 11 85 6 124 -12z"/>
</g>
</svg>
